<?xml version="1.0" encoding="UTF-8" standalone="no"?>
<!-- Creator: CorelDRAW X5 -->

<svg
   xml:space="preserve"
   width="203.29999mm"
   height="91.106003mm"
   style="clip-rule:evenodd;fill-rule:evenodd;image-rendering:optimizeQuality;shape-rendering:geometricPrecision;text-rendering:geometricPrecision"
   viewBox="0 0 20329.999 9111"
   version="1.1"
   id="svg41221"
   sodipodi:docname="Jatenggayeng.svg"
   inkscape:version="1.2.1 (9c6d41e4, 2022-07-14)"
   inkscape:export-filename="jatenggayengv2.svg"
   inkscape:export-xdpi="96"
   inkscape:export-ydpi="96"
   xmlns:inkscape="http://www.inkscape.org/namespaces/inkscape"
   xmlns:sodipodi="http://sodipodi.sourceforge.net/DTD/sodipodi-0.dtd"
   xmlns="http://www.w3.org/2000/svg"
   xmlns:svg="http://www.w3.org/2000/svg"><sodipodi:namedview
   id="namedview41223"
   pagecolor="#ffffff"
   bordercolor="#000000"
   borderopacity="0.25"
   inkscape:showpageshadow="2"
   inkscape:pageopacity="0.0"
   inkscape:pagecheckerboard="0"
   inkscape:deskcolor="#d1d1d1"
   inkscape:document-units="mm"
   showgrid="false"
   inkscape:zoom="0.57003792"
   inkscape:cx="333.31116"
   inkscape:cy="194.72389"
   inkscape:window-width="1309"
   inkscape:window-height="456"
   inkscape:window-x="0"
   inkscape:window-y="25"
   inkscape:window-maximized="0"
   inkscape:current-layer="Layer_x0020_1"
   showguides="true" />
 <defs
   id="defs41197"><style
     type="text/css"
     id="style41195">
   <![CDATA[
    .fil0 {fill:#943132}
   ]]>
  </style></defs>
 <g
   id="Layer_x0020_1"
   inkscape:label="Layer 1"
   inkscape:groupmode="layer">
  <metadata
   id="CorelCorpID_0Corel-Layer" />
  
  
  
  
  
  
  
  
  
  <g
   id="g30805"
   transform="matrix(0.73238665,0,0,0.73238665,10010.475,-1024.328)"
   style="fill:#ffffff"><path
     class="fil0"
     d="m 13758.485,3504.4016 c -85.501,59.5757 -162.178,135.7004 -231.132,228.9256 -53.507,57.9208 -103.155,140.1135 -148.939,247.1293 l -105.362,317.7376 c -77.778,189.2084 -156.111,332.6317 -235.544,429.7182 -102.051,129.6326 -195.829,193.6213 -281.332,191.9665 h -20.41 c -109.773,-12.1357 -162.177,-123.013 -157.764,-331.5282 1.656,-172.1081 70.057,-436.3379 205.757,-791.5863 120.254,-242.7161 249.335,-426.4084 386.691,-551.0762 137.355,-125.2195 262.023,-161.0753 309.463,-140.1133 111.429,48.5431 44.682,211.825 -172.108,263.6779 h -6.619 c -1.656,53.508 24.271,90.4671 77.779,111.9805 53.508,21.5135 115.843,23.72 187.554,6.6196 187.553,-68.4019 291.811,-183.1405 313.323,-343.1126 0,-80.5375 -21.512,-145.6297 -63.987,-194.1731 -82.192,-83.8473 -209.619,-109.2221 -381.727,-75.5728 -181.485,47.4399 -352.491,125.2195 -512.462,233.3385 -159.973,108.119 -296.777,236.6484 -409.309,384.4848 -123.564,158.3171 -241.611,355.7998 -354.696,592.4482 -82.192,219.5479 -125.219,407.1013 -127.977,562.6605 1.103,15.4455 2.758,29.7878 3.861,44.1303 -201.345,516.3235 -481.572,312.7729 -409.308,127.4259 29.787,-76.6763 33.649,-125.7711 110.325,-327.1154 76.125,-201.3441 161.626,-434.6828 199.69,-532.3208 100.395,-291.2595 121.357,-429.7182 118.048,-583.6224 -6.067,-198.0345 -57.921,-337.5962 -155.557,-417.5822 -97.64,-79.9861 -195.829,-120.2549 -295.124,-120.2549 -253.196,-2.7581 -484.88,145.078 -695.05,443.5088 h -15.998 l 2.208,-36.4075 c 1.654,-225.6158 -107.568,-356.9032 -327.115,-393.3107 -87.158,4.4131 -157.766,21.5136 -212.93,50.1981 -54.612,28.6846 -83.294,71.7118 -84.398,127.9778 45.784,9.3776 70.608,45.2334 75.572,107.5675 0,23.1684 -2.206,47.4399 -6.619,73.3663 -21.513,198.0345 -108.119,489.8456 -259.816,874.8818 -54.613,138.4587 -99.295,257.6103 -135.149,359.1099 -309.464,647.0594 -861.091,531.7692 -861.091,531.7692 -187.554,-10.4809 -268.643,-145.6297 -242.165,-404.8949 1.654,-281.8818 88.259,-603.4807 259.815,-964.2454 171.558,-360.7647 334.84,-540.0438 490.399,-538.3887 59.574,-6.068 88.261,27.5813 87.157,100.3962 0,111.4286 -50.199,268.091 -151.146,471.09 -100.398,202.9992 -231.133,350.8355 -391.104,443.509 -49.094,19.8585 -75.574,51.3013 -79.988,93.7767 2.759,30.3396 31.445,42.4753 84.399,36.4074 151.148,-31.9944 333.737,-125.2196 548.871,-279.1237 114.186,-94.3283 204.103,-209.067 268.643,-344.2158 64.541,-135.1488 98.189,-264.2297 99.293,-387.7943 -3.308,-81.0893 -33.649,-155.5592 -91.57,-223.9611 -57.919,-68.4017 -146.18,-103.7059 -265.333,-105.3609 -286.846,-2.7581 -574.245,139.0103 -862.195,425.3052 -369.0389,405.4464 -554.3858,818.0641 -556.0399,1237.3013 -3.3109,239.4066 56.8172,409.8596 179.8302,511.359 122.4612,101.4997 290.7077,151.1461 504.1877,150.0427 273.609,0 568.728,-150.0427 884.812,-450.1281 -4.964,23.1683 -7.723,43.0269 -8.827,59.0241 -10.48,123.5646 9.93,220.651 61.781,290.7078 51.855,70.057 147.838,111.429 287.952,123.5648 143.423,-12.1358 222.857,-59.5758 237.751,-141.7684 -24.272,-9.3776 -42.476,-35.3042 -55.163,-77.7796 -15.447,-53.5077 41.372,-244.371 170.453,-573.1413 129.081,-328.7701 198.586,-499.7748 209.619,-513.5656 259.265,-565.4186 480.468,-839.5777 663.056,-820.8224 85.502,1.6551 129.633,51.3014 132.392,148.3879 7.721,85.5023 -58.473,318.8411 -199.138,700.0159 -73.367,175.4176 -142.32,348.6289 -206.86,519.0818 -65.093,171.0047 -91.02,325.4605 -78.883,464.4706 23.168,205.7573 137.355,301.189 343.112,301.7406 0,0 408.205,50.1982 650.369,-392.2074 v 0 c 64.54,252.6455 227.823,376.7619 490.949,371.7971 0,0 377.865,47.9916 766.211,-488.7423 -257.057,677.3992 -1063.539,2335.0409 -2441.505,1042.5767 0,0 -99.846,-86.054 -301.74,-322.1506 -89.915,-105.3609 -145.078,36.4074 -27.582,289.053 0,0 281.882,919.5636 1289.706,957.0745 0,0 1376.864,89.3636 1763.555,-1840.7824 42.475,-173.7628 82.744,-373.4521 145.077,-593.5516 110.876,-390.5526 119.703,-516.3237 179.831,-647.6111 13.239,-207.9637 -163.833,-99.2931 -163.833,-99.2931 z"
     id="path41200"
     style="fill:#ffffff;stroke-width:0.551629" /><path
     class="fil0"
     d="m 5684.3071,3033.3114 c 165.4884,84.9507 367.9359,19.8585 453.4382,-145.0782 84.9508,-165.4884 19.8586,-367.9357 -145.0781,-453.4381 -165.4884,-84.9506 -367.9359,-44.6818 -453.4381,120.8066 -84.9508,165.4882 -19.8587,392.759 145.078,477.7097 z"
     id="path41202"
     style="fill:#ffffff;stroke-width:0.551629" /><path
     class="fil0"
     d="m 5532.0579,3053.7216 c -238.855,-519.0819 -982.4493,-475.5032 -982.4493,-475.5032 -479.3645,46.8884 -907.4279,298.9823 -990.1721,597.9646 -61.7823,222.8578 3.3098,388.8977 125.2196,472.1934 l 3.8614,2.2066 c 162.7303,77.2279 336.4931,46.3368 512.4622,-91.0185 l 2.7582,-2.7582 c 60.1274,-59.5758 97.0866,-124.1163 109.7739,-190.8632 13.7908,-72.8149 -8.8259,-130.1841 -65.6436,-167.1435 -20.9619,-10.4807 -36.9592,-3.3095 -46.3368,3.8616 l -2.7583,4.413 -6.6194,4.4129 v 0 0 c -34.2009,23.1685 -91.0186,59.0243 -139.0102,63.4372 -28.6846,2.7582 -75.0214,-0.5516 -86.054,-71.7115 -26.4782,-177.0726 500.3265,-643.7499 1080.6392,-323.8056 296.224,163.2819 247.6808,874.3303 36.4073,1377.4149 -514.1171,1600.2726 -1402.7897,1903.1161 -1883.8092,1966.0017 -410.9629,54.0596 -667.4698,-20.9618 -780.5535,-178.1758 -88.2605,-122.4612 -82.7441,3.3098 -82.7441,3.3098 -1.6549,57.921 8.8259,104.2577 36.4073,182.0373 135.7003,350.2837 745.2493,557.1441 1065.1936,517.9786 1195.9292,-145.0781 1812.6493,-1543.455 1812.6493,-1543.455 258.1618,-523.4948 351.3869,-981.8976 352.49,-987.4138 106.4643,-599.6194 83.2959,-822.4772 -73.3664,-1163.3833 z"
     id="path41204"
     style="fill:#ffffff;stroke-width:0.551629" /><path
     class="fil0"
     d="m 7758.4294,4298.1941 v -9.9292 l 0.5498,-0.5516 c 0,3.3097 0,6.6196 -0.5498,9.9293 z m 547.7653,-561.0056 v 0 c 115.8422,-463.9189 158.8695,-706.6352 199.1376,-848.4036 l 179.8297,-10.4809 c 0,0 194.175,-45.2336 352.492,-183.1405 0,0 257.059,-186.4503 449.025,-327.1154 49.095,-36.4074 32.546,-39.717 32.546,-39.717 -11.032,-4.4131 -29.788,3.3096 -36.408,6.0677 l -1.655,0.5516 -0.551,0.5517 c -166.04,75.573 -469.987,184.2438 -906.8764,225.6158 168.7974,-777.7954 -273.0557,-827.9935 -273.0557,-827.9935 -3.3098,-0.5516 -6.0683,-1.1032 -9.3782,-1.6548 -19.8583,-5.5163 -41.3716,-7.1713 -63.4373,-4.9647 -99.8446,10.4809 -178.1753,100.9479 -174.8652,201.8958 0.5508,10.4811 1.6533,19.8586 3.8617,29.7879 -0.5525,8.8261 1.1024,17.6521 6.0674,28.1331 0,0 3.3101,7.7226 10.4808,18.2037 29.2357,56.2662 88.2596,92.1219 156.6628,88.8121 97.6371,168.2465 42.4749,319.3925 -4.4133,409.3079 10.4799,13.2391 57.3689,53.5078 131.287,73.9181 -148.9395,5.5163 -537.2856,5.5163 -627.7519,-133.494 0,0 -49.6473,-74.4697 -17.6533,-157.214 v 0 c 9.3792,-37.5107 -22.064,-18.7553 -23.1674,-18.2036 -71.1606,49.6465 -174.8669,174.8659 4.9651,426.96 0,0 146.7327,210.7218 335.3886,230.5804 l -171.0043,675.7441 v 0 0.5517 l -98.1897,435.7862 v 0 0.5515 l -33.0973,148.3879 c -34.2016,137.9069 -94.329,346.974 -179.8311,520.7367 -59.5755,121.3581 -190.3118,247.681 -190.3118,247.681 -211.825,173.2112 -169.9019,-221.7544 -169.9019,-221.7544 l 274.1598,-1055.2641 c 57.9207,-199.6895 -95.9829,-166.5917 -95.9829,-166.5917 v 0 c -55.7148,34.7526 -114.187,92.1217 -175.4185,172.6595 -95.983,126.3228 -168.246,265.8847 -217.3409,418.6856 -100.3962,281.8816 -201.8969,487.639 -303.9464,616.1683 -102.0521,129.081 -195.8292,192.5182 -281.3306,190.8632 h -20.4108 c -109.7737,-12.1358 -162.1786,-122.4613 -157.7657,-331.5283 1.655,-172.1079 69.505,-435.786 203.5505,-791.586 120.2555,-242.7163 249.3366,-426.4083 386.692,-551.0761 137.3553,-125.2198 227.27,-164.9368 269.7457,-119.1519 -4.4133,82.1926 -48.5433,163.282 -132.3904,242.1647 h -7.1716 c -1.6542,53.5078 24.2715,90.4672 77.7797,111.9805 53.5082,21.5134 115.8421,23.72 187.5534,6.6195 187.5544,-68.4018 291.8116,-182.5888 313.3247,-343.1126 0,-81.0893 -21.5131,-145.6298 -63.9888,-194.7245 -82.1923,-83.8476 -209.6193,-109.2224 -381.7261,-75.573 -181.4862,47.44 -352.4913,125.2193 -512.4632,233.3384 -159.9719,108.1191 -296.7757,236.097 -409.3078,384.4847 -123.5645,158.8688 -235.5449,346.9739 -336.4928,564.8671 -93.2252,237.7514 -141.2169,434.6827 -143.9749,590.2417 -21.5135,379.5201 151.6975,566.522 519.0817,560.4539 219.5485,1.6548 417.582,-99.8446 594.6555,-304.4985 h 15.9965 c -1.654,23.1684 12.1359,68.9536 41.3733,137.3553 62.3331,103.7061 146.1803,157.214 251.5407,159.972 152.8019,10.4812 307.2572,-81.6408 464.4716,-276.917 100.3964,-140.1137 214.0318,-355.8002 214.0318,-355.8002 v -28.1328 c 11.5832,289.6046 71.7114,601.2743 236.0958,855.5748 9.3784,17.1006 15.4466,25.9266 15.4466,25.9266 8.8258,11.5841 17.1008,22.065 24.8233,32.546 l 0.5508,0.5516 v 0 c 190.3118,241.0613 136.2528,7.1711 136.2528,7.1711 -129.0812,-492.052 11.0324,-1174.4158 134.5962,-1714.4596 z"
     id="path41206"
     style="fill:#ffffff;stroke-width:0.551629" /><path
     class="fil0"
     d="m 5957.9146,6243.2342 c -23.7199,13.7906 -47.9916,25.3749 -72.815,34.7525 -20.9617,9.3776 -43.5784,17.6521 -68.4018,24.2716 -24.8231,7.1712 -49.0948,10.4811 -73.3663,10.4811 -33.0978,0 -59.0244,-4.9647 -77.2281,-14.8941 -18.2036,-9.9293 -30.891,-24.2716 -37.5106,-43.0269 -6.6196,-18.7554 -8.8261,-41.3723 -6.068,-68.4019 2.7581,-27.0299 8.8261,-57.9211 18.2039,-93.2252 9.9291,-39.1657 23.1681,-74.4699 39.1655,-105.9124 15.9971,-31.4429 35.3041,-57.3694 57.9209,-78.883 22.6166,-21.5133 49.6465,-37.5107 79.9859,-48.5432 30.8913,-11.0325 66.7471,-16.5489 108.1192,-16.5489 11.5842,0 25.3748,0.5517 41.3722,1.1033 15.9969,1.1033 31.4427,1.6549 45.785,2.758 17.6521,1.1034 35.3041,1.6551 52.9563,2.7583 l -108.6708,393.3108 z m 159.4206,-488.1907 v 0 c -29.2364,-1.6549 -59.0243,-3.3099 -89.3639,-4.9649 -30.8911,-1.6547 -56.266,-2.7579 -77.2279,-2.7579 -126.8744,0 -223.9608,28.6846 -291.8111,86.054 -67.8503,57.3692 -116.9451,141.2166 -147.2846,252.6455 -14.3424,51.3014 -21.5135,97.0866 -20.962,137.907 0,40.8203 8.8261,75.0213 25.9267,103.7059 17.1002,28.6847 44.1302,50.1984 79.986,65.0922 35.8558,14.8939 82.1925,22.6168 137.9069,22.6168 21.5136,0 43.5786,-3.3097 65.0921,-9.9293 22.0652,-6.6195 41.3722,-13.7908 59.0242,-21.5135 17.652,-8.2745 32.5459,-15.4457 44.1302,-22.6167 11.5842,-6.6197 19.307,-10.4811 22.6168,-11.5843 l -4.413,13.7907 c -21.5135,77.7795 -53.508,137.907 -96.5349,180.934 -43.027,42.4754 -105.361,63.9888 -187.5535,63.9888 -14.3424,0 -31.4428,0 -50.7498,-1.1033 -120.2549,4.9648 -148.3879,83.2959 -148.3879,83.2959 22.0651,3.3097 44.1303,6.6195 67.2986,8.8259 19.8585,2.2066 41.3721,4.4132 65.6438,6.0679 23.72,1.655 47.4399,2.7582 70.0568,2.7582 111.9803,0 200.7925,-25.9266 265.333,-77.2278 64.5404,-51.3015 111.9805,-131.8392 141.2166,-241.0615 l 174.3143,-629.4073 c -35.304,-1.655 -70.0567,-3.8614 -104.2574,-6.6195 z"
     id="path41208"
     style="fill:#ffffff;stroke-width:0.551629" /><path
     class="fil0"
     d="m 6733.503,6222.8238 c -8.2743,8.2745 -20.9608,18.2038 -38.6132,29.788 -17.6524,11.0325 -37.5107,21.5135 -59.5764,31.9944 -22.065,10.481 -45.7849,18.7553 -70.6081,25.9266 -24.8233,6.6196 -49.0949,10.4808 -73.3665,10.4808 -15.4448,0 -29.2366,-3.3097 -41.3714,-9.3776 -12.1358,-6.6196 -22.0658,-14.894 -29.7883,-25.3749 -7.7234,-10.4809 -13.7908,-22.6168 -17.1008,-35.8558 -3.8617,-13.2391 -5.5166,-26.4781 -5.5166,-39.1656 0,-44.682 6.0682,-88.8121 19.3075,-132.3906 13.239,-44.1303 32.5456,-83.2959 58.4722,-118.0484 25.9265,-34.7525 57.9215,-62.334 97.0872,-83.8474 38.614,-21.5136 83.8472,-31.9945 134.5961,-31.9945 22.6174,0 46.3374,1.6549 70.0573,4.9646 23.7199,3.3098 43.0265,6.0679 57.9205,7.7229 l -100.947,366.8324 z m 237.2009,-463.919 v 0 l -250.991,-11.5841 c -70.608,0 -133.4944,12.6876 -188.6575,38.614 -54.6107,25.9264 -101.4989,60.1273 -140.6645,102.6026 -38.6142,42.4754 -67.8506,92.1219 -88.2602,147.8363 -19.8592,55.7145 -29.7878,114.7387 -29.2365,176.521 0,27.5814 4.4131,52.9562 12.1356,77.7794 7.7227,24.2718 19.8592,45.7853 36.4079,63.9889 15.9973,18.2038 36.959,32.5462 63.4374,43.5786 25.9257,11.0326 57.3689,15.9973 93.7763,15.9973 25.9265,0 50.7498,-2.2064 74.4698,-6.6196 23.7207,-4.413 46.3364,-9.9293 67.8496,-17.1004 21.5142,-7.1712 40.8208,-14.894 58.4733,-23.7199 17.6523,-8.2744 32.5456,-17.1006 45.233,-25.375 8.2742,23.72 25.9267,41.372 53.5082,52.9562 27.03,11.5844 66.7472,18.2039 118.5996,19.8587 l 1.1042,-2.7581 c -67.2981,-10.4811 -57.3698,-101.4995 -46.889,-150.0429 v -4.413 l 137.9069,-494.8101 -17.6525,-2.7582 z"
     id="path41210"
     style="fill:#ffffff;stroke-width:0.551629" /><path
     class="fil0"
     d="m 7626.589,5825.6519 -292.3623,474.3999 c -15.4458,-1.1033 -27.5817,-6.6195 -36.96,-17.6521 -8.8258,-10.481 -14.3416,-30.3394 -16.5474,-59.5759 l -24.2724,-461.1609 c -100.9471,7.7229 -117.497,96.535 -117.497,96.535 l 23.7208,409.3079 c 0,15.4456 3.3091,30.3395 10.4798,44.6817 6.62,14.3424 15.4466,27.5816 25.9274,39.7174 10.4809,12.1357 22.6174,22.0651 35.8557,30.891 13.7909,8.2744 27.0299,14.3424 40.8208,17.6521 -16.5492,26.4781 -32.5466,48.5433 -47.9924,66.1955 -15.4449,17.652 -34.2007,33.0976 -56.8173,46.8883 -22.0649,13.7906 -49.0948,27.0298 -79.9864,39.7171 -14.8933,6.0679 -31.4432,12.6875 -49.6464,19.8588 -60.1274,24.8231 -65.0923,93.2251 -65.0923,117.4967 l 0.5517,8.8259 c 63.989,-22.0651 118.5994,-43.0269 163.2819,-62.3338 44.6823,-19.3071 83.2964,-39.7174 115.8429,-62.3339 32.5448,-22.0652 61.2297,-47.4402 86.0529,-76.1248 24.8233,-28.6845 49.6466,-63.4373 74.4698,-104.8094 l 387.7953,-633.2686 c -102.6029,-1.655 -153.3528,35.8557 -176.5219,63.9888 z"
     id="path41212"
     style="fill:#ffffff;stroke-width:0.551629" /><path
     class="fil0"
     d="m 7987.9059,5990.037 c 20.4099,-33.0978 44.1299,-60.1275 69.5038,-82.1927 25.9276,-22.065 52.9574,-38.0622 81.6424,-49.6464 28.6848,-11.0328 55.1631,-16.549 79.9855,-16.549 37.5106,0 66.7473,5.5162 88.2597,17.1006 21.5141,11.5842 31.9957,28.6846 31.9957,50.7497 0,35.3042 -13.7907,65.0921 -41.3723,89.3637 -28.1333,24.2718 -62.334,44.1303 -102.6022,59.5759 -40.2699,15.4456 -83.8488,26.4782 -130.1844,33.6493 -46.3375,7.1711 -87.1581,11.0325 -122.4622,11.0325 9.3775,-42.4754 23.7199,-80.5376 44.6815,-113.6352 z m 375.1071,219.5479 v 0 c -33.0983,20.4102 -66.7473,38.6139 -100.948,54.0594 -29.7882,13.7908 -62.334,25.9265 -97.0864,36.9592 -34.7531,11.0325 -68.4022,16.5489 -102.0513,16.5489 -30.3398,0 -54.0597,-2.7582 -71.7122,-8.8261 -17.6525,-6.068 -31.4424,-13.7909 -41.3715,-23.1684 -9.93,-9.3777 -16.5491,-20.4104 -19.8582,-33.0976 -3.3109,-12.6875 -4.9651,-25.9268 -4.9651,-39.7173 v -12.6875 c 23.1682,0 53.5074,-1.6549 91.0189,-4.413 38.0624,-3.3098 78.3305,-8.826 120.8053,-17.6521 42.4757,-8.8262 84.9515,-22.0651 126.8746,-39.1655 41.924,-17.1005 78.3314,-39.7173 109.7738,-67.8504 30.8924,-27.0296 53.5081,-54.6112 67.2996,-81.0891 13.7901,-27.0299 20.9609,-54.0595 20.4101,-81.6411 0,-22.065 -4.9642,-43.0269 -14.3424,-62.8855 -9.3776,-19.8586 -23.7199,-36.9591 -42.4749,-51.3015 -18.7558,-14.3422 -41.9241,-25.9264 -69.5064,-33.649 -27.5816,-8.2747 -60.1266,-12.136 -97.638,-12.136 -39.1648,0 -79.9856,6.6196 -121.9096,20.4102 -41.9232,13.7906 -82.1922,34.2008 -120.2536,61.7824 -38.0634,27.5814 -72.8148,61.7822 -103.1557,103.1542 -30.3389,41.3722 -54.0588,90.4672 -70.0563,146.7332 -14.3424,50.1981 -21.5123,97.0866 -20.9624,139.5617 0.5524,61.2309 18.7557,109.2224 55.164,143.4234 36.4073,34.2009 97.638,51.3014 184.2426,51.3014 41.3732,0 81.0898,-4.9647 119.1521,-14.3423 38.0616,-9.3777 71.7114,-19.8586 102.0513,-31.9944 4.9642,-2.2066 10.4808,-4.4131 15.4449,-6.6195 71.7122,-36.9593 86.6063,-151.1461 86.6063,-151.1461 z"
     id="path41214"
     style="fill:#ffffff;stroke-width:0.551629" /><path
     class="fil0"
     d="m 9022.76,5845.5104 c 31.995,0 56.265,4.9646 71.71,14.8941 15.446,9.9292 25.377,24.2716 29.238,43.0268 3.861,18.7555 2.757,41.9237 -2.759,69.5052 -5.516,27.5813 -13.238,59.5758 -23.719,95.4315 l -89.915,332.08 c 0,0 130.735,0.5516 164.385,-121.9097 l 57.919,-211.2735 c 14.344,-54.0595 23.17,-100.948 26.478,-141.2166 3.31,-40.2689 -0.55,-73.3666 -12.134,-99.8446 -11.584,-26.4784 -31.994,-46.3369 -60.127,-59.5759 -28.686,-13.2391 -67.851,-19.8587 -118.05,-19.8587 -25.926,0 -51.853,3.3096 -77.227,9.3777 -25.375,6.068 -49.647,13.7907 -72.264,23.1684 -23.168,9.3776 -43.578,19.8586 -62.333,30.8911 -18.757,11.0326 -34.753,22.0652 -47.992,31.9944 l 25.926,-80.5377 h -132.39 l -175.9695,639.3367 h 19.8582 c 36.4074,-2.2063 113.0839,-17.1003 140.6653,-104.2576 l 4.965,-17.6521 v 0 l 89.364,-334.2865 c 16.548,-11.0325 33.648,-22.6166 51.3,-33.6492 17.653,-11.5843 36.409,-22.0652 56.818,-31.4429 20.41,-9.3776 41.373,-17.1005 63.99,-23.72 22.064,-6.6196 46.336,-9.9293 72.263,-9.9293 z"
     id="path41216"
     style="fill:#ffffff;stroke-width:0.551629" /><path
     class="fil0"
     d="m 9809.381,6242.6826 c -23.721,13.7906 -47.992,25.3747 -72.815,34.7525 -20.961,9.3776 -43.578,17.6521 -68.402,24.2716 -24.823,7.1712 -49.095,10.4808 -73.366,10.4808 -33.098,0 -59.024,-4.9645 -77.228,-14.8939 -18.204,-9.9293 -30.891,-24.2717 -37.511,-43.0269 -6.619,-18.7554 -8.825,-41.9237 -5.516,-68.4017 2.758,-27.03 8.827,-57.9212 18.204,-92.6737 9.929,-39.1657 23.168,-74.4699 39.166,-105.9124 15.998,-31.4429 35.303,-57.3694 57.92,-78.883 22.617,-21.5133 49.095,-37.5107 79.986,-48.5432 30.891,-11.0325 66.747,-16.5489 108.12,-16.5489 11.583,0 24.823,0.5517 41.372,1.1033 15.996,1.1033 31.443,1.6549 46.335,2.758 17.654,0.5518 35.306,1.6551 52.956,2.2066 l -108.671,393.3109 z m 159.42,-488.1907 v 0 c -29.236,-1.655 -59.023,-3.3098 -89.914,-4.9648 -30.892,-1.6548 -56.266,-2.7581 -77.23,-2.7581 -126.874,0 -223.961,28.6847 -291.809,86.054 -67.85,57.3693 -116.946,141.2167 -147.285,252.6456 -14.343,51.3013 -21.514,97.0865 -20.962,137.9068 0,40.8206 8.826,75.0215 26.477,103.7061 17.103,28.6846 43.58,50.1981 79.987,65.0921 35.855,14.894 82.193,22.6169 137.908,22.6169 22.064,0 43.579,-3.3098 65.092,-9.9293 21.512,-6.6197 41.371,-13.7909 59.024,-21.5136 17.651,-8.2744 32.544,-15.4455 44.129,-22.6168 12.136,-6.6194 19.307,-10.4808 22.617,-11.584 l -4.412,13.7906 c -21.516,77.7795 -53.509,137.9069 -96.536,180.9339 -43.027,43.0271 -105.361,63.9888 -187.554,63.9888 -14.342,0 -31.442,-0.5516 -50.749,-1.1031 -124.117,5.5163 -148.389,83.2956 -148.389,83.2956 22.065,3.3099 44.131,6.6196 67.299,8.8262 19.859,2.7581 41.371,4.9647 65.645,6.6194 23.719,1.655 47.439,2.7582 70.058,2.7582 111.978,0 200.791,-25.9266 265.331,-77.2278 64.539,-51.3015 111.98,-131.8392 141.218,-241.0615 l 174.313,-629.4073 c -35.304,-1.655 -70.056,-3.8614 -104.258,-6.0679 z"
     id="path41218"
     style="fill:#ffffff;stroke-width:0.551629" /></g>
 </g>
</svg>
