<?xml version="1.0" encoding="UTF-8" standalone="no"?>
<svg
   width="351"
   height="38.148582"
   viewBox="0 0 351 38.148583"
   class="css-1j8o68f"
   version="1.1"
   id="svg690"
   xmlns="http://www.w3.org/2000/svg"
   xmlns:svg="http://www.w3.org/2000/svg">
  <defs
     id="SvgjsDefs1538" />
  <g
     id="SvgjsG1539"
     featurekey="vMvB0T-0"
     transform="matrix(0.68006301,0,0,0.68006301,-7.2322827,-3.8717688)"
     fill="#ffffff">
    <path
       d="m 14.365225,20.19531 c -1.0938,0 -2.4219,-0.29297 -3.7305,-0.97656 l 1.2402,-2.4121 c 0.69336,0.48828 1.3672,0.75195 2.1387,0.75195 1.1523,0 1.7383,-0.69336 1.7383,-2.3438 V 5.8886 h 2.9297 v 9.873 c 0,2.8906 -1.7578,4.4336 -4.3164,4.4336 z M 31.553203,20 l -1.0254,-2.9102 h -5.9277 L 23.574703,20 h -2.998 l 5.1953,-14.111 h 3.584 L 34.551303,20 h -2.998 z m -6.0942,-5.3613 h 4.209 l -2.0996,-5.9863 z M 44.12105,20 40.44915,13.7891 H 39.59954 V 20 h -2.9297 V 5.889 h 5.1172 c 3.1934,0 4.541,1.8848 4.541,4.2188 0,1.8945 -1.0742,3.125 -2.9883,3.5352 l 4.248,6.3574 h -3.4668 z M 39.59965,8.32 v 3.3691 h 1.7285 c 1.5625,0 2.1973,-0.66406 2.1973,-1.6797 0,-1.0059 -0.63477,-1.6895 -2.1973,-1.6895 h -1.7285 z M 49.736356,20 V 5.889 h 2.9297 V 20 Z M 65.947422,5.889 h 2.9199 V 20 h -3.3887 l -6.25,-10.088 V 20 h -2.9199 V 5.889 h 3.3496 l 6.2891,10.029 z m 12.675637,14.30631 c -4.0723,0 -7.0703,-2.8125 -7.0703,-7.2168 0,-4.4629 3.0664,-7.2852 7.2168,-7.2852 2.7246,0 4.9805,1.2012 6.2109,3.3203 l -2.5684,1.3672 c -0.74219,-1.4453 -2.0703,-2.1387 -3.6426,-2.1387 -2.4414,0 -4.2773,1.6797 -4.2773,4.668 0,2.8809 1.7188,4.7363 4.3848,4.7363 1.8066,0 3.4668,-0.89844 3.8672,-2.959 h -3.8574 v -2.3535 h 6.6309 v 7.666 h -2.3047 v -1.9531 c -0.9082,1.3379 -2.4316,2.1484 -4.5898,2.1484 z M 97.998516,20 l -1.0254,-2.9102 h -5.9277 L 90.020016,20 h -2.998 l 5.1953,-14.111 h 3.584 L 100.99662,20 h -2.998004 z m -6.0942,-5.3613 h 4.209 l -2.0996,-5.9863 z M 112.75406,5.889 h 2.9199 V 20 h -3.3887 l -6.25,-10.088 V 20 h -2.9199 V 5.889 h 3.3496 l 6.2891,10.029 z M 124.52151,20 V 5.889 h 5.1074 c 4.502,0 6.7285,2.832 6.7285,7.0508 0,4.2285 -2.2266,7.0605 -6.7285,7.0605 h -5.1074 z m 2.9297,-2.5879 h 2.0313 c 2.5977,0 3.7891,-1.6211 3.7891,-4.4727 0,-2.8516 -1.1914,-4.4727 -3.7891,-4.4727 h -2.0313 v 8.9453 z m 17.90038,2.78321 c -4.1504,0 -7.2168,-2.832 -7.2168,-7.2559 0,-4.4336 3.0664,-7.2461 7.2168,-7.2461 4.1406,0 7.207,2.8125 7.207,7.2461 0,4.4238 -3.0664,7.2559 -7.207,7.2559 z m 0,-2.68551 c 2.4316,0 4.2969,-1.709 4.2969,-4.5703 0,-2.8516 -1.8652,-4.5508 -4.2969,-4.5508 -2.4317,0 -4.2969,1.6992 -4.2969,4.5508 0,2.8613 1.8652,4.5703 4.2969,4.5703 z M 163.60373,20 l -4.3848,-5.9961 h -1.0352 V 20 h -2.9297 V 5.889 h 2.9297 v 5.5469 h 0.99609 l 4.4238,-5.5469 h 3.5742 l -5.4688,6.748 5.6348,7.3633 h -3.7402 z m 11.06426,0.19531 c -3.0957,0 -5.5176,-1.582 -5.5176,-5.1367 v -9.1699 h 2.9297 v 8.7695 c 0,2.1484 1.1426,2.9492 2.5879,2.9492 1.4551,0 2.6074,-0.81055 2.6074,-2.9492 v -8.7695 h 2.9297 v 9.1699 c 0,3.5547 -2.4316,5.1367 -5.5371,5.1367 z M 199.73628,20 h -2.9199 L 195.88865,9.365 192.31445,20 h -1.8945 L 186.84575,9.365 185.90825,20 h -2.9297 l 1.1816,-14.111 h 4.1797 l 3.0078,8.8574 3.0469,-8.8574 h 4.1797 z M 210.98656,8.467 h -5.2344 v 3.2031 h 4.6387 v 2.5488 h -4.6387 v 3.1934 h 5.2344 v 2.5879 h -8.1836 V 5.8892 h 8.1836 v 2.5781 z m 12.65617,-2.578 h 2.9199 V 20 h -3.3887 l -6.25,-10.088 V 20 h -2.9199 V 5.889 h 3.3496 l 6.2891,10.029 z m 14.75594,0 v 2.5781 h -3.3496 v 11.533 h -2.9004 V 8.4671 h -3.3691 V 5.889 Z M 250.05906,20 l -1.0254,-2.9102 h -5.9277 L 242.08056,20 h -2.998 l 5.1953,-14.111 h 3.584 L 253.05716,20 h -2.998 z m -6.0942,-5.3613 h 4.209 l -2.0996,-5.9863 z m 15.89845,5.55661 c -3.0273,0 -5.3906,-1.4551 -5.8203,-4.1016 l 3.0273,-0.69336 c 0.19531,1.582 1.3574,2.4023 2.9102,2.4023 1.1914,0 2.1387,-0.52734 2.1289,-1.7188 -0.01,-1.3281 -1.5723,-1.748 -3.291,-2.2754 -2.0703,-0.64453 -4.2871,-1.4063 -4.2871,-4.0039 0,-2.627 2.1484,-4.1113 4.9805,-4.1113 2.4805,0 4.9805,1.0059 5.5469,3.7109 l -2.832,0.70313 c -0.26367,-1.4063 -1.2109,-2.0215 -2.5391,-2.0215 -1.1816,0 -2.1875,0.48828 -2.1875,1.6504 0,1.084 1.3867,1.4453 2.9883,1.9238 2.1289,0.64453 4.6484,1.4648 4.6484,4.2773 0,2.998 -2.5098,4.2578 -5.2734,4.2578 z M 267.84182,20 V 5.889 h 2.9297 V 20 Z m 11.76758,0 V 5.889 h 5.1074 c 4.502,0 6.7285,2.832 6.7285,7.0508 0,4.2285 -2.2266,7.0605 -6.7285,7.0605 h -5.1074 z m 2.9297,-2.5879 h 2.0313 c 2.5977,0 3.7891,-1.6211 3.7891,-4.4727 0,-2.8516 -1.1914,-4.4727 -3.7891,-4.4727 h -2.0313 V 17.412 Z M 303.63328,20 l -1.0254,-2.9102 h -5.9277 L 295.65478,20 h -2.998 l 5.1953,-14.111 h 3.584 L 306.63138,20 h -2.998 z m -6.0942,-5.3613 h 4.209 l -2.0996,-5.9863 z M 318.38883,5.889 h 2.9199 V 20 h -3.3887 l -6.25,-10.088 V 20 h -2.9199 V 5.889 h 3.3496 l 6.2891,10.029 z M 330.15628,20 V 5.889 h 2.9297 V 20 Z M 346.36734,5.889 h 2.9199 V 20 h -3.3887 l -6.25,-10.088 V 20 h -2.9199 V 5.889 h 3.3496 l 6.2891,10.029 z m 14.89194,2.578 h -5.3711 v 3.2031 h 4.6387 v 2.5488 h -4.6387 v 5.7813 h -2.9492 V 5.8892 h 8.3203 v 2.5781 z m 8.75051,11.72831 c -4.1504,0 -7.2168,-2.832 -7.2168,-7.2559 0,-4.4336 3.0664,-7.2461 7.2168,-7.2461 4.1406,0 7.207,2.8125 7.207,7.2461 0,4.4238 -3.0664,7.2559 -7.207,7.2559 z m 0,-2.68551 c 2.4316,0 4.2969,-1.709 4.2969,-4.5703 0,-2.8516 -1.8652,-4.5508 -4.2969,-4.5508 -2.4317,0 -4.2969,1.6992 -4.2969,4.5508 0,2.8613 1.8652,4.5703 4.2969,4.5703 z M 387.36324,20 l -3.6719,-6.2109 h -0.84961 V 20 h -2.9297 V 5.889 h 5.1172 c 3.1934,0 4.541,1.8848 4.541,4.2188 0,1.8945 -1.0742,3.125 -2.9883,3.5352 l 4.248,6.3574 h -3.4668 z m -4.5214,-11.68 v 3.3691 h 1.7285 c 1.5625,0 2.1973,-0.66406 2.1973,-1.6797 0,-1.0059 -0.63477,-1.6895 -2.1973,-1.6895 h -1.7285 z M 409.15034,20 h -2.9199 L 405.30271,9.365 401.72851,20 h -1.8945 L 396.25981,9.365 395.32231,20 h -2.9297 l 1.1816,-14.111 h 4.1797 l 3.0078,8.8574 3.0469,-8.8574 h 4.1797 z m 12.51028,0 -1.0254,-2.9102 h -5.9277 L 413.68212,20 h -2.998 l 5.1953,-14.111 h 3.584 L 424.65872,20 h -2.998 z m -6.0942,-5.3613 h 4.209 l -2.0996,-5.9863 z m 15.89845,5.55661 c -3.0273,0 -5.3906,-1.4551 -5.8203,-4.1016 l 3.0273,-0.69336 c 0.19531,1.582 1.3574,2.4023 2.9102,2.4023 1.1914,0 2.1387,-0.52734 2.1289,-1.7188 -0.01,-1.3281 -1.5723,-1.748 -3.291,-2.2754 -2.0703,-0.64453 -4.2871,-1.4063 -4.2871,-4.0039 0,-2.627 2.1484,-4.1113 4.9805,-4.1113 2.4805,0 4.9805,1.0059 5.5469,3.7109 l -2.832,0.70313 c -0.26367,-1.4063 -1.2109,-2.0215 -2.5391,-2.0215 -1.1816,0 -2.1875,0.48828 -2.1875,1.6504 0,1.084 1.3867,1.4453 2.9883,1.9238 2.1289,0.64453 4.6484,1.4648 4.6484,4.2773 0,2.998 -2.5098,4.2578 -5.2734,4.2578 z M 439.44339,20 V 5.889 h 2.9297 V 20 Z M 460.10777,5.889 h 2.9297 V 20 h -2.9297 v -5.8008 h -5.9668 V 20 h -2.9297 V 5.889 h 2.9297 v 5.7617 h 5.9668 z m 11.80631,14.30631 c -3.0957,0 -5.5176,-1.582 -5.5176,-5.1367 v -9.1699 h 2.9297 v 8.7695 c 0,2.1484 1.1426,2.9492 2.5879,2.9492 1.4551,0 2.6074,-0.81055 2.6074,-2.9492 v -8.7695 h 2.9297 v 9.1699 c 0,3.5547 -2.4316,5.1367 -5.5371,5.1367 z M 489.16037,20 l -4.3848,-5.9961 h -1.03519 V 20 h -2.92971 V 5.889 h 2.92971 v 5.5469 h 0.99608 l 4.4238,-5.5469 h 3.5742 l -5.46879,6.748 5.63479,7.3633 h -3.7402 z m 11.06426,0.19531 c -3.0957,0 -5.5176,-1.582 -5.5176,-5.1367 v -9.1699 h 2.9297 v 8.7695 c 0,2.1484 1.1426,2.9492 2.5879,2.9492 1.4551,0 2.6074,-0.81055 2.6074,-2.9492 v -8.7695 h 2.9297 v 9.1699 c 0,3.5547 -2.4316,5.1367 -5.5371,5.1367 z M 525.29292,20 h -2.9199 L 521.44529,9.365 517.87109,20 h -1.8945 L 512.40239,9.365 511.46489,20 h -2.9297 l 1.1816,-14.111 h 4.1797 l 3.0078,8.8574 3.0469,-8.8574 h 4.1797 z"
       id="path684" />
  </g>
  <g
     id="SvgjsG1540"
     featurekey="sloganFeature-0"
     transform="matrix(1.4583158,0,0,1.4583158,-1.663031,8.6974433)"
     fill="#ffffff">
    <path
       d="m 7.6953,5.889 c 2.7637,0 4.4824,2.0508 4.4824,4.5605 0,2.5684 -1.7188,4.4922 -4.4824,4.4922 H 4.7558 v 5.0586 H 1.8261 V 5.8893 H 7.6952 Z M 7.207,12.4902 c 1.4648,0 2.1484,-0.81055 2.1484,-2.0801 0,-1.2207 -0.68359,-2.0703 -2.1484,-2.0703 H 4.7558 v 4.1504 z M 21.608843,20 l -3.6719,-6.2109 h -0.84961 V 20 h -2.9297 V 5.889 h 5.1172 c 3.1934,0 4.541,1.8848 4.541,4.2188 0,1.8945 -1.0742,3.125 -2.9883,3.5352 l 4.248,6.3574 h -3.4668 z m -4.5214,-11.68 v 3.3691 h 1.7285 c 1.5625,0 2.1973,-0.66406 2.1973,-1.6797 0,-1.0059 -0.63477,-1.6895 -2.1973,-1.6895 h -1.7285 z m 15.905749,11.87531 c -4.1504,0 -7.2168,-2.832 -7.2168,-7.2559 0,-4.4336 3.0664,-7.2461 7.2168,-7.2461 4.1406,0 7.207,2.8125 7.207,7.2461 0,4.4238 -3.0664,7.2559 -7.207,7.2559 z m 0,-2.68551 c 2.4316,0 4.2969,-1.709 4.2969,-4.5703 0,-2.8516 -1.8652,-4.5508 -4.2969,-4.5508 -2.4317,0 -4.2969,1.6992 -4.2969,4.5508 0,2.8613 1.8652,4.5703 4.2969,4.5703 z M 51.389379,5.889 h 3.1152 L 49.289779,20 h -3.2227 l -5.1855,-14.111 h 3.1055 l 3.7012,10.693 z M 56.142606,20 V 5.889 h 2.9297 V 20 Z M 71.872715,5.889 h 2.9199 V 20 h -3.3887 l -6.25,-10.088 V 20 h -2.9199 V 5.889 h 3.3496 l 6.2891,10.029 z m 10.77868,14.30631 c -3.0273,0 -5.3906,-1.4551 -5.8203,-4.1016 l 3.0273,-0.69336 c 0.19531,1.582 1.3574,2.4023 2.9102,2.4023 1.1914,0 2.1387,-0.52734 2.1289,-1.7188 -0.0098,-1.3281 -1.5723,-1.748 -3.291,-2.2754 -2.0703,-0.64453 -4.2871,-1.4063 -4.2871,-4.0039 0,-2.627 2.1484,-4.1113 4.9805,-4.1113 2.4805,0 4.9805,1.0059 5.5469,3.7109 l -2.832,0.70313 c -0.26367,-1.4063 -1.2109,-2.0215 -2.5391,-2.0215 -1.1816,0 -2.1875,0.48828 -2.1875,1.6504 0,1.084 1.3867,1.4453 2.9883,1.9238 2.1289,0.64453 4.6484,1.4648 4.6484,4.2773 0,2.998 -2.5098,4.2578 -5.2734,4.2578 z M 90.148954,20 V 5.889 h 2.9297 V 20 Z m 12.954066,0.19531 c -1.0938,0 -2.4219,-0.29297 -3.730502,-0.97656 l 1.240202,-2.4121 c 0.69336,0.48828 1.3672,0.75195 2.1387,0.75195 1.1523,0 1.7383,-0.69336 1.7383,-2.3438 V 5.8886 h 2.9297 v 9.873 c 0,2.8906 -1.7578,4.4336 -4.3164,4.4336 z M 119.81004,20 l -1.0254,-2.9102 h -5.9277 L 111.83154,20 h -2.998 l 5.1953,-14.111 h 3.584 L 122.80814,20 h -2.998 z m -6.0942,-5.3613 h 4.209 l -2.0996,-5.9863 z M 126.74073,20 123.04933,5.889 h 3.0469 l 2.7539,10.684 3.1543,-10.684 h 2.4707 l 3.1348,10.684 2.7832,-10.684 h 3.0371 L 139.73883,20 h -3.7695 l -2.7344,-8.7207 -2.7246,8.7207 h -3.7695 z m 27.90818,0 -1.0254,-2.9102 h -5.9277 L 146.67041,20 h -2.998 l 5.1953,-14.111 h 3.584 L 157.64701,20 h -2.998 z m -6.0942,-5.3613 h 4.209 l -2.0996,-5.9863 z M 172.18285,5.889 v 2.5781 h -3.3496 v 11.533 h -2.9004 V 8.4671 h -3.3691 V 5.889 Z m 9.91944,2.578 h -5.2344 v 3.2031 h 4.6387 v 2.5488 h -4.6387 v 3.1934 h 5.2344 v 2.5879 h -8.1836 V 5.8892 h 8.1836 V 8.4673 Z M 194.2775,5.889 h 2.9199 V 20 h -3.3887 l -6.25,-10.088 V 20 h -2.9199 V 5.889 h 3.3496 l 6.2891,10.029 z m 12.19468,14.30631 c -4.0723,0 -7.0703,-2.8125 -7.0703,-7.2168 0,-4.4629 3.0664,-7.2852 7.2168,-7.2852 2.7246,0 4.9805,1.2012 6.2109,3.3203 l -2.5684,1.3672 c -0.74219,-1.4453 -2.0703,-2.1387 -3.6426,-2.1387 -2.4414,0 -4.2773,1.6797 -4.2773,4.668 0,2.8809 1.7188,4.7363 4.3848,4.7363 1.8066,0 3.4668,-0.89844 3.8672,-2.959 h -3.8574 v -2.3535 h 6.6309 v 7.666 h -2.3047 v -1.9531 c -0.9082,1.3379 -2.4316,2.1484 -4.5898,2.1484 z M 225.36668,20 l -1.0254,-2.9102 h -5.9277 L 217.38818,20 h -2.998 l 5.1953,-14.111 h 3.584 L 228.36478,20 h -2.998 z m -6.0942,-5.3613 h 4.209 l -2.0996,-5.9863 z M 238.89927,5.889 h 2.9297 V 20 h -2.9297 v -5.8008 h -5.9668 V 20 h -2.9297 V 5.889 h 2.9297 v 5.7617 h 5.9668 z"
       id="path687" />
  </g>
</svg>
