<?xml version="1.0" encoding="UTF-8" standalone="no"?>
<svg
   width="200"
   height="92.638535"
   viewBox="0 0 200 92.638534"
   class="css-1j8o68f"
   version="1.1"
   id="svg341"
   xmlns="http://www.w3.org/2000/svg"
   xmlns:svg="http://www.w3.org/2000/svg">
  <defs
     id="SvgjsDefs2589" />
  <g
     id="SvgjsG2590"
     featurekey="nameFeature-0"
     transform="matrix(3.07143,0,0,3.07143,-6.1428592,-30.359373)"
     fill="#ffffff">
    <path
       d="m 6.72,11.16 c 0,0.56 0.12,19.52 0.12,21.84 0,0.52 -0.12,1.04 -0.4,1.48 -0.2,0.4 -0.6,0.88 -1.12,0.88 -0.56,0 -1.16,-0.2 -1.72,-0.4 C 3.32,34.8 2.64,34.32 2.56,34.96 2.44,36 2.12,38.64 2,39.44 c 0,0.2 0.52,0.28 0.6,0.32 1.04,0.2 2.16,0.28 3.2,0.28 1.08,0.04 2.16,-0.12 3.12,-0.68 1.64,-0.96 2.92,-2.8 2.92,-4.8 L 11.92,12.32 C 11.92,12.08 12,10.8 11.84,10.4 11.6,9.76 10.72,9.92 10.2,9.92 9.32,9.92 8.44,9.84 7.6,9.92 6.8,10 6.72,10.24 6.72,11.16 Z m 26.782,21.48 c 0.24,-0.52 0.44,-1.04 0.64,-1.56 0.44,-1.28 0.52,-2.6 0.64,-3.92 0.24,-2.8 0.16,-5.64 -0.56,-8.36 -0.88,-3.48 -3.12,-6.68 -6.48,-8.16 -1.52,-0.68 -3.24,-0.76 -4.88,-0.72 -1.72,0 -3.48,-0.08 -5.2,0.08 -0.48,0.04 -0.72,0.28 -0.8,0.72 -0.08,0.48 -0.16,0.96 -0.16,1.4 0.08,2.44 0,9.68 0.08,10.88 0.04,1.08 -0.08,2.4 -0.08,3.48 0.04,2.68 0,5.4 0,8.08 0,1.12 -0.04,2.2 -0.04,3.32 0,1.2 -0.44,1.72 2.84,1.72 2.92,0 5.96,-0.24 8.72,-1.28 2.56,-0.92 4.16,-3.28 5.28,-5.68 z m -11.64,-4.16 v -4.8 c 0,-3.04 0.08,-5 -0.04,-7.56 v -0.48 c 0.04,-0.84 0.16,-0.88 1.04,-0.88 1.16,-0.04 2,0.24 3,0.64 1,0.4 1.56,1.28 2.08,2.12 1,1.64 1.4,3.44 1.48,5.32 0.04,1.08 0.08,2.16 0.08,3.24 0,5.12 -3,8.68 -5.64,8.68 -1.76,0 -2.04,0.12 -2.04,-1.04 0,-1.2 0.08,-2.4 0.08,-3.6 -0.04,-0.52 -0.04,-1.08 -0.04,-1.64 z m 23.302,1.2 c -0.12,-4.56 -0.08,-9.4 -0.04,-13.92 0,-1.4 -0.08,-2.92 -0.08,-4.32 0,-1.52 -0.6,-1.44 -1.4,-1.48 -1.16,-0.04 -1.68,-0.04 -2.84,-0.04 -0.76,-0.04 -1.08,0.16 -1.08,0.92 0,3.92 -0.12,15 -0.08,16.6 0.04,1.6 0.2,8.88 0.12,10.48 -0.04,0.56 0,1.12 0.04,1.68 0.04,0.2 0.16,0.4 0.48,0.4 1.32,-0.08 2.56,-0.08 3.88,-0.12 0.48,-0.04 0.88,-0.16 1.08,-0.68 0.04,-0.28 -0.08,-7.6 -0.08,-9.52 z m 16.822,-1.52 c 0,1.8 -0.04,5.36 -0.08,5.36 v 5.44 c 0,0.24 -0.04,0.64 0.08,0.88 0.12,0.28 0.48,0.2 0.72,0.16 1.16,-0.12 2.32,0.04 3.48,0 1.28,-0.04 0.88,-2 0.84,-2.8 -0.16,-1.76 0.04,-15.16 0.04,-19.96 0,-2.16 -0.08,-6.6 -0.2,-6.8 -0.2,-0.36 -0.72,-0.44 -1.12,-0.48 -0.88,-0.16 -1.32,0.08 -2.64,0.08 -1.32,0 -1.4,0.4 -1.4,1.8 v 1.2 c -0.04,0.96 0.12,7.68 0.12,8.76 0,0.52 -0.04,0.56 -0.56,0.56 -1.32,-0.04 -3.16,0.12 -4.52,0 -1.96,-0.16 -1.52,0 -1.64,-1.8 v -0.24 c 0,-2.56 0.32,-9.2 0.2,-9.6 -0.2,-0.6 -0.44,-0.72 -0.96,-0.68 -1.2,0.08 -2.44,-0.12 -3.64,-0.04 -0.4,0.04 -0.52,0.16 -0.64,0.56 -0.04,0.2 -0.08,0.4 -0.08,0.6 0,1.24 0.08,2.92 0.12,4.16 l -0.12,23.72 c 0,1.04 0.92,0.92 2.96,0.92 1.88,0 2.36,0.44 2.36,-1.8 0,-1.8 -0.12,-4.08 -0.08,-5.88 0.04,-1.4 0,-2.76 0,-4.16 0.04,-0.52 0.16,-0.68 0.64,-0.68 1.76,-0.04 3.68,0 5.44,0 0.56,0 0.68,0.08 0.68,0.72 z"
       id="path338" />
  </g>
</svg>
