<?xml version="1.0" encoding="UTF-8" standalone="no"?>
<svg
   width="240"
   height="79.834076"
   viewBox="0 0 240 79.834073"
   class="css-1j8o68f"
   version="1.1"
   id="svg13"
   xmlns="http://www.w3.org/2000/svg"
   xmlns:svg="http://www.w3.org/2000/svg">
  <defs
     id="SvgjsDefs1237" />
  <g
     id="SvgjsG1238"
     featurekey="nameFeature-0"
     transform="matrix(2.7900422,0,0,2.7900422,-1.3623785,-32.858326)"
     fill="#ffffff">
    <path
       d="m 7.9492,40.39063 c -2.1875,0 -4.8438,-0.58594 -7.4609,-1.9531 l 2.4805,-4.8242 c 1.3867,0.97656 2.7344,1.5039 4.2773,1.5039 2.3047,0 3.4766,-1.3867 3.4766,-4.6875 v -18.652 h 5.8594 v 19.746 c 0,5.7813 -3.5156,8.8672 -8.6328,8.8672 z M 22.475542,40 V 11.777 h 10.215 c 9.0039,0 13.457,5.6641 13.457,14.102 0,8.457 -4.4531,14.121 -13.457,14.121 z m 5.8594,-5.1758 h 4.0625 c 5.1953,0 7.5781,-3.2422 7.5781,-8.9453 0,-5.7031 -2.3828,-8.9453 -7.5781,-8.9453 h -4.0625 v 17.891 z M 50.673784,40 V 11.777 h 5.8594 V 40 Z M 80.649102,11.777 h 5.8594 V 40 h -5.8594 V 28.398 h -11.934 V 40 h -5.8594 V 11.777 h 5.8594 V 23.3 h 11.934 z"
       id="path10" />
  </g>
</svg>
