<?xml version="1.0" encoding="UTF-8" standalone="no"?>
<!-- Generator: Adobe Illustrator 19.0.0, SVG Export Plug-In . SVG Version: 6.00 Build 0)  -->

<svg
   version="1.1"
   id="Layer_1"
   x="0px"
   y="0px"
   viewBox="0 0 309.267 309.267"
   style="enable-background:new 0 0 309.267 309.267;"
   xml:space="preserve"
   sodipodi:docname="pdf-svgrepo.svg"
   inkscape:version="1.2.1 (9c6d41e4, 2022-07-14)"
   xmlns:inkscape="http://www.inkscape.org/namespaces/inkscape"
   xmlns:sodipodi="http://sodipodi.sourceforge.net/DTD/sodipodi-0.dtd"
   xmlns="http://www.w3.org/2000/svg"
   xmlns:svg="http://www.w3.org/2000/svg"><defs
   id="defs39964">
	
	
	
</defs><sodipodi:namedview
   id="namedview39962"
   pagecolor="#ffffff"
   bordercolor="#000000"
   borderopacity="0.25"
   inkscape:showpageshadow="2"
   inkscape:pageopacity="0.0"
   inkscape:pagecheckerboard="0"
   inkscape:deskcolor="#d1d1d1"
   showgrid="false"
   inkscape:zoom="0.76309468"
   inkscape:cx="91.07651"
   inkscape:cy="152.01259"
   inkscape:window-width="1440"
   inkscape:window-height="768"
   inkscape:window-x="0"
   inkscape:window-y="25"
   inkscape:window-maximized="1"
   inkscape:current-layer="Layer_1" />
<path
   style="fill:#e2574c;stroke-width:0.745157"
   d="M 85.658923,35.382242 H 208.03598 l 64.86513,64.613267 V 251.43143 c 0,7.95753 -6.45231,14.40313 -14.40313,14.40313 H 85.658923 c -7.95082,0 -14.403131,-6.4456 -14.403131,-14.40313 V 49.785372 c 0,-7.957526 6.453056,-14.40313 14.403131,-14.40313 z"
   id="path39923" /><path
   style="fill:#b53629;stroke-width:0.745157"
   d="m 272.69321,100.1967 h -50.20269 c -7.95082,0 -14.40313,-6.452309 -14.40313,-14.403129 V 35.526057 Z"
   id="path39925" /><path
   style="fill:#ffffff;stroke-width:0.745157"
   d="m 218.87502,144.58046 c 2.41282,0 3.59389,-2.10283 3.59389,-4.14084 0,-2.11028 -1.23174,-4.14828 -3.59389,-4.14828 h -13.74068 c -2.68629,0 -4.18406,2.22504 -4.18406,4.68107 v 33.76826 c 0,3.01043 1.71386,4.68107 4.03279,4.68107 2.30477,0 4.02608,-1.67064 4.02608,-4.68107 v -9.26826 h 8.31073 c 2.57824,0 3.86737,-2.11028 3.86737,-4.20566 0,-2.05216 -1.28913,-4.09091 -3.86737,-4.09091 h -8.31073 v -12.59538 c 0,0 9.86587,0 9.86587,0 z m -46.44337,-8.28912 H 162.378 c -2.72951,0 -4.66691,1.87258 -4.66691,4.65201 v 33.82638 c 0,3.44933 2.78688,4.52981 4.78167,4.52981 h 10.55067 c 12.48733,0 20.73323,-8.21684 20.73323,-20.89941 -0.007,-13.40909 -7.76974,-22.10879 -21.34501,-22.10879 z m 0.48287,34.66915 h -6.12892 v -26.32936 h 5.52385 c 8.3614,0 11.99776,5.61028 11.99776,13.35171 0,7.24516 -3.57228,12.97765 -11.39269,12.97765 z m -36.82937,-34.66915 h -9.95976 c -2.81594,0 -4.38599,1.85767 -4.38599,4.68107 v 33.76826 c 0,3.01043 1.8003,4.68107 4.21982,4.68107 2.41953,0 4.21982,-1.67064 4.21982,-4.68107 v -9.85917 h 6.24367 c 7.70566,0 14.06483,-5.45901 14.06483,-14.2377 7.5e-4,-8.59091 -6.13487,-14.35246 -14.40239,-14.35246 z m -0.16542,20.66915 h -5.73994 v -12.73994 h 5.73994 c 3.54322,0 5.79732,2.76527 5.79732,6.37332 -0.007,3.60134 -2.2541,6.36662 -5.79732,6.36662 z"
   id="path39927" />
<g
   id="g39931">
</g>
<g
   id="g39933">
</g>
<g
   id="g39935">
</g>
<g
   id="g39937">
</g>
<g
   id="g39939">
</g>
<g
   id="g39941">
</g>
<g
   id="g39943">
</g>
<g
   id="g39945">
</g>
<g
   id="g39947">
</g>
<g
   id="g39949">
</g>
<g
   id="g39951">
</g>
<g
   id="g39953">
</g>
<g
   id="g39955">
</g>
<g
   id="g39957">
</g>
<g
   id="g39959">
</g>
</svg>
