<?xml version="1.0" encoding="UTF-8" standalone="no"?>
<!-- Created with Inkscape (http://www.inkscape.org/) -->
<svg xmlns:dc="http://purl.org/dc/elements/1.1/" xmlns:cc="http://creativecommons.org/ns#" xmlns:rdf="http://www.w3.org/1999/02/22-rdf-syntax-ns#" xmlns:svg="http://www.w3.org/2000/svg" xmlns="http://www.w3.org/2000/svg" xmlns:sodipodi="http://sodipodi.sourceforge.net/DTD/sodipodi-0.dtd" xmlns:inkscape="http://www.inkscape.org/namespaces/inkscape" id="svg2" version="1.1" inkscape:version="0.48.4 r9939" width="333.08405" height="331.94998" sodipodi:docname="Logo Setneg RI.PNG">
  <metadata id="metadata8">
    <rdf:RDF>
      <cc:Work rdf:about="">
        <dc:format>image/svg+xml</dc:format>
        <dc:type rdf:resource="http://purl.org/dc/dcmitype/StillImage"/>
        <dc:title/>
      </cc:Work>
    </rdf:RDF>
  </metadata>
  <defs id="defs6"/>
  <sodipodi:namedview pagecolor="#ffffff" bordercolor="#666666" borderopacity="1" objecttolerance="10" gridtolerance="10" guidetolerance="10" inkscape:pageopacity="0" inkscape:pageshadow="2" inkscape:window-width="640" inkscape:window-height="480" id="namedview4" showgrid="false" fit-margin-top="0" fit-margin-left="0" fit-margin-right="0" fit-margin-bottom="0" inkscape:zoom="0.71084337" inkscape:cx="288.88983" inkscape:cy="191.27203" inkscape:window-x="0" inkscape:window-y="0" inkscape:window-maximized="0" inkscape:current-layer="svg2"/>
  <path style="fill:#895700" d="m 174,324.06884 0,-7.88116 5.25,-0.65131 c 16.13791,-2.00205 37.58348,-8.42965 48.29487,-14.47478 4.99211,-2.81738 5.31568,-2.87316 6.84742,-1.18061 0.88424,0.97708 1.60771,2.08246 1.60771,2.45642 0,0.37395 1.36215,2.5603 3.02699,4.85856 3.71496,5.12834 3.52143,5.37791 -8.02699,10.35115 -14.95451,6.44006 -29.41795,10.60154 -43.20347,12.43069 -4.56309,0.60547 -9.53403,1.2969 -11.04653,1.53652 L 174,331.95 l 0,-7.88116 z m 18.5,2.24779 c 14.14452,-2.66018 26.30212,-6.48818 38.77351,-12.20843 l 6.77351,-3.1068 -1.711,-2.7507 c -3.97277,-6.38685 -3.90073,-6.36367 -10.16118,-3.27005 -9.3683,4.62938 -26.01449,9.82503 -37.17484,11.6031 -5.775,0.92008 -11.0625,1.82601 -11.75,2.01318 -1.31721,0.3586 -1.79591,8.52382 -0.57151,9.74823 0.70619,0.70619 2.51119,0.47476 15.82151,-2.02853 z m -57.5,3.18444 c -6.53411,-1.12726 -12.27391,-2.60403 -25.7197,-6.61733 -4.36075,-1.3016 -19.383707,-8.03077 -22.0713,-9.88631 L 85.040096,311.5 l 4.433034,-6.63492 4.433033,-6.63492 6.526847,3.34354 C 113.32149,308.17615 141.11233,316 151.67622,316 153.90137,316 154,316.31833 154,323.5 l 0,7.5 -5.75,-0.10252 c -3.1625,-0.0564 -9.125,-0.68477 -13.25,-1.39641 z M 150.54979,324.5 c 0.0274,-2.2 -0.11041,-4.50295 -0.30621,-5.11766 -0.19579,-0.61472 -3.24178,-1.41332 -6.76886,-1.77468 -7.45909,-0.76421 -24.18784,-4.82116 -29.97472,-7.26928 -2.2,-0.9307 -6.025,-2.53112 -8.5,-3.55648 -2.475,-1.02536 -5.694432,-2.52075 -7.154293,-3.3231 -3.477763,-1.91138 -3.406171,-1.93415 -4.845708,1.5412 -0.683452,1.65 -1.589902,3 -2.014332,3 -0.42443,0 -1.034528,0.68494 -1.355775,1.5221 -0.422312,1.10053 0.863642,2.18778 4.643012,3.92557 15.160766,6.97109 23.154516,9.44284 45.227096,13.98469 10.17361,2.09342 10.98993,1.87678 11.04979,-2.93236 z M 138.5,312.30462 c -4.22802,-0.5577 -18.60418,-4.16835 -21,-5.27426 -1.1,-0.50776 -4.40119,-1.91937 -7.33597,-3.13691 -4.53075,-1.87965 -5.27142,-2.55133 -4.90826,-4.45108 0.3696,-1.93347 -0.10347,-2.32231 -3.48295,-2.86271 -4.397441,-0.70318 -8.329103,-4.28294 -9.235266,-8.40868 C 91.990199,285.6789 91.58957,285.5 86.556017,285.5 c -4.333335,0 -5.902669,-0.47703 -7.975454,-2.42431 -1.41931,-1.33338 -2.61609,-3.13338 -2.659511,-4 -0.05257,-1.04927 -0.248733,-1.15425 -0.587153,-0.31423 -0.279514,0.6938 -1.40547,1.74166 -2.502126,2.32857 -1.688931,0.90389 -2.555115,0.4815 -5.662847,-2.76146 -2.01791,-2.10571 -5.018927,-5.04006 -6.668927,-6.52078 -3.64274,-3.269 -7.614633,-7.5978 -13.336033,-14.53436 C 43.010683,252.23804 42.516839,250 45.559016,250 c 0.792541,0 1.440983,-0.45 1.440983,-1 0,-0.55 -0.590809,-1 -1.312909,-1 -0.7221,0 -2.606291,-1.35 -4.187091,-3 -3.448518,-3.59948 -4.5,-3.76306 -4.5,-0.70008 0,6.29532 26.200042,34.79803 38.862263,42.27779 1.725755,1.01943 3.137737,2.18668 3.137737,2.59389 0,0.40721 -1.35,3.02999 -3,5.8284 -1.65,2.79841 -3,5.51821 -3,6.04401 0,2.1548 -3.437347,0.64998 -10.759667,-4.71044 C 54.668181,290.79026 35.963924,272.65596 30.999999,266.0452 25.877543,259.22331 21.03287,252 21.57989,252 c 0.3109,0 -0.38492,-1.20797 -1.54627,-2.68439 -1.50379,-1.91176 -1.93693,-3.47936 -1.50489,-5.44643 0.51864,-2.36135 0.0961,-3.09623 -2.91258,-5.06561 -3.33331,-2.18187 -6.27822,-6.47483 -5.1889,-7.56416 0.27618,-0.27617 -0.15697,-1.44315 -0.96256,-2.59328 C 8.65911,227.496 8,225.55308 8,224.32852 c 0,-2.15249 0.11522,-2.17832 3.46788,-0.77749 4.80844,2.00909 5.23904,1.83035 2.53212,-1.05103 -1.29175,-1.375 -3.05769,-2.50689 -3.92431,-2.51531 -0.86663,-0.008 -2.22175,-0.42413 -3.01139,-0.92379 -1.15974,-0.73385 -1.19539,-1.19802 -0.18543,-2.41495 1.0303,-1.24144 0.89462,-1.69681 -0.77127,-2.58836 -2.48606,-1.3305 -3.76929,-7.30992 -2.27337,-10.5931 0.92995,-2.04104 0.733,-2.65974 -1.37436,-4.31739 C 0.35424,197.49081 0,196.38083 0,191.43941 c 0,-3.17501 0.28242,-5.49032 0.62761,-5.14514 0.34518,0.34519 0.58742,2.6294 0.53831,5.07603 -0.10298,5.13053 2.48625,8.6758 3.50133,4.79415 C 4.97855,194.974 5.81828,194 6.5333,194 c 0.71502,0 1.50173,-0.5625 1.74824,-1.25 0.66711,-1.86051 -1.12173,-4.74855 -2.59182,-4.18443 -0.70388,0.2701 -2.27201,-0.65008 -3.48475,-2.04484 -2.89479,-3.32931 -2.79445,-4.13699 0.26492,-2.13242 2.3111,1.51429 2.42922,1.50561 1.83728,-0.13499 C 3.95923,183.289 2.84778,181.30553 1.83727,179.84563 0.82677,178.38573 0,176.00739 0,174.56045 c 0,-2.35695 0.21711,-2.51462 2.08565,-1.51461 2.44683,1.3095 2.43867,1.31509 4.20019,-2.87433 l 1.36109,-3.23708 2.69543,2.12023 2.69544,2.12023 1.90342,-2.33744 1.90342,-2.33745 1.07768,2.8151 c 0.59272,1.5483 1.07768,3.3258 1.07768,3.95 0,0.81037 0.34315,0.79175 1.2,-0.0651 0.66,-0.66 2.145,-1.2 3.299999,-1.2 2.972802,0 4.5,-1.8929 4.5,-5.57756 0,-3.12381 -2.05141,-6.0377 -3.342009,-4.7471 -0.361895,0.3619 -0.657991,-0.71886 -0.657991,-2.40168 0,-1.79723 -0.618916,-3.29718 -1.5,-3.63529 C 20.71971,154.95521 18,155.84282 18,157.10699 18,157.59814 17.55,158 17,158 c -0.55,0 -1,-1.75186 -1,-3.89301 0,-2.69011 -0.50817,-4.08802 -1.64462,-4.52411 -2.39783,-0.92014 -5.28036,2.10045 -4.75727,4.98512 0.40538,2.23552 0.26106,2.32496 -2.05142,1.27132 -4.46011,-2.03216 -7.3738,2.48427 -4.0045,6.2073 1.40841,1.55628 1.33679,1.74336 -0.82574,2.15675 -2.26781,0.43352 -2.37447,0.19571 -2.52295,-5.62536 -0.10388,-4.07295 0.15077,-5.59243 0.77194,-4.60604 0.79195,1.25757 1.02465,1.21744 1.59755,-0.27552 0.51081,-1.33116 0.98968,-1.48266 2.00999,-0.63588 C 6.52174,154.6779 8,153.31872 8,149.9096 8,147.99411 7.37776,146.70513 6.25,146.28447 5.2875,145.92545 3.825,144.70207 3,143.56585 1.54424,141.56093 1.48176,141.60323 0.88164,145 c -0.53549,3.03096 -0.636,2.77309 -0.75,-1.92431 L 0,137.65137 l 2.32878,2.18778 2.32879,2.18778 -0.45059,-3.26347 c -0.24783,-1.7949 -1.15015,-4.06159 -2.00516,-5.03709 -1.15525,-1.31805 -1.26442,-2.06377 -0.425,-2.90319 0.78368,-0.78368 0.82072,-1.70666 0.12098,-3.01415 -1.06724,-1.99414 -0.30343,-5.87528 1.36751,-6.94872 0.54766,-0.35183 1.1299,-2.33043 1.29387,-4.39688 0.16396,-2.06646 0.71277,-4.0286 1.21957,-4.36031 0.5068,-0.33172 1.18488,-2.61844 1.50685,-5.08162 0.32196,-2.46317 1.0391,-4.62974 1.59365,-4.81459 0.55455,-0.18485 1.51848,-1.88202 2.14207,-3.771494 1.29208,-3.91505 2.54097,-4.38988 3.51063,-1.33475 1.012,3.188534 2.43735,0.95413 3.13181,-4.90948 0.41248,-3.48275 0.20189,-5.64814 -0.64902,-6.67342 -1.04991,-1.26507 -0.94788,-1.51815 0.61281,-1.52005 1.39226,-0.002 1.90004,-0.77672 1.98005,-3.02215 0.0777,-2.1803 1.25924,-4.08305 4.25,-6.844104 2.792024,-2.577582 4.142399,-4.662871 4.142399,-6.396812 0,-3.417905 3.095241,-8.7204 5.095012,-8.728327 C 33.972268,59.002823 35.504513,58.1 36.499999,57 c 2.712455,-2.997229 4.489312,-2.511002 4.567975,1.25 0.06443,3.080596 0.221077,2.937254 3.005232,-2.75 1.615492,-3.3 2.764264,-7.054568 2.552826,-8.343485 -0.32829,-2.001253 -0.03698,-2.277065 1.994768,-1.888671 1.891606,0.361603 2.385717,0.02212 2.411002,-1.656516 0.05349,-3.550909 2.668116,-5.936467 7.1715,-6.5432 3.758162,-0.506331 4.286973,-0.911603 4.861595,-3.725839 0.904704,-4.430832 4.292154,-8.585237 5.783925,-7.093466 0.858245,0.858245 1.456592,0.731574 2.39743,-0.507542 0.689561,-0.908174 2.47666,-2.104804 3.971332,-2.659178 2.631887,-0.976168 2.698898,-0.914519 2.125,1.954972 C 76.966733,26.916329 77.161461,28 77.874999,28 c 0.61875,0 1.125,-0.596559 1.125,-1.325686 0,-0.729127 1.125,-2.382569 2.5,-3.674314 1.375,-1.291745 2.5,-3.411019 2.5,-4.709498 0,-2.006409 0.28418,-2.208781 1.892771,-1.347889 1.496067,0.80067 2.180703,0.57933 3.266568,-1.05607 1.398342,-2.106016 5.035914,-2.787702 7.958649,-1.491462 1.183378,0.524831 2.181633,-0.237726 3.716353,-2.838884 2.55002,-4.321963 8.8025,-7.761829 10.14881,-5.583467 0.72789,1.177763 1.5124,1.107557 4.95109,-0.443078 2.24738,-1.013427 4.38721,-1.541532 4.75518,-1.173566 0.36797,0.367966 -0.10112,2.284037 -1.0424,4.257935 l -1.71143,3.588907 3.2822,-1.962089 C 123.02301,9.161691 125.9625,7.444008 127.75,6.423768 129.5375,5.403527 131,3.765808 131,2.784392 131,1.802976 131.675,1 132.5,1 c 0.825,0 1.5,0.475517 1.5,1.056704 0,0.592291 0.97677,0.372545 2.22251,-0.5 C 137.46229,0.688325 140.5059,0 143.10587,0 c 3.91041,0 4.75029,0.341954 5.21625,2.123781 0.44276,1.693128 1.06266,1.996461 3.05705,1.4959 1.87004,-0.469349 2.8764,-0.09288 3.98582,1.491022 0.81627,1.165396 1.26054,2.701587 0.98725,3.413758 -0.27678,0.72127 0.4481,1.594782 1.6364,1.971932 4.80347,1.524564 5.19496,9.738743 0.52007,10.912066 C 156.69875,21.862729 156,22.709229 156,24.447623 156,27.347711 153.57745,30 150.92857,30 149.86786,30 148.1,30.9 147,32 c -2.25052,2.25052 -4.1952,2.501084 -7.1477,0.920954 -1.60352,-0.858176 -2.27953,-0.718941 -3.30262,0.680221 -1.20816,1.652248 -1.35705,1.62727 -2.44769,-0.410604 C 132.32066,29.86212 125,26.491677 125,29 c 0,0.55 0.61431,1 1.36514,1 0.75083,0 2.60741,0.977166 4.12573,2.17148 2.60651,2.050281 2.65919,2.245628 0.94373,3.5 C 130.43533,36.402166 128.57875,37 127.30887,37 125.97148,37 125,37.602784 125,38.432612 c 0,2.099501 -3.49088,2.861445 -9.60814,2.097143 C 111.08923,39.992178 110,40.142335 110,41.273056 c 0,2.324416 -3.68274,4.945023 -7.19767,5.121798 -2.22815,0.112059 -3.39319,0.719165 -3.617751,1.885217 -0.414598,2.152833 -2.049701,2.234994 -2.852349,0.143325 -0.815564,-2.125326 -5.344525,-3.811102 -6.672121,-2.483506 -0.685614,0.685614 0.247615,1.541435 2.880408,2.641486 3.670265,1.533535 3.784666,1.707675 1.985921,3.02295 C 93.476654,52.371947 92.081232,53 91.425501,53 c -0.655732,0 -1.419814,0.870246 -1.69796,1.93388 -0.345752,1.322158 -1.726998,2.140575 -4.366632,2.587319 -6.662182,1.127539 -7.36091,1.506237 -7.36091,3.989485 0,2.558858 -3.32187,5.489316 -6.222506,5.489316 -1.083926,0 -1.777494,0.746495 -1.777494,1.913136 0,1.711938 -0.316437,1.793694 -3.008915,0.777397 -2.519239,-0.950906 -3.608707,-0.814713 -6.694455,0.836864 L 56.61109,72.5 l 4.892385,0.5 4.892385,0.5 -3.050832,3.499996 c -1.677957,1.925 -2.867255,4.02432 -2.642883,4.66514 0.224371,0.64083 -0.516823,1.45866 -1.647099,1.81739 -1.130276,0.35874 -2.055047,1.02314 -2.055047,1.47645 0,0.45332 -1.209705,1.12782 -2.688234,1.49891 -3.775581,0.94761 -5.156474,3.28101 -4.562479,7.70957 0.460607,3.43409 0.216624,3.94059 -2.676099,5.55556 -2.600414,1.451784 -3.112714,2.282644 -2.799331,4.540014 0.334636,2.41046 0.118339,2.67844 -1.695138,2.10014 -4.019875,-1.28191 -7.578719,-0.74252 -7.578719,1.14865 0,1.20372 0.815159,1.38147 4,0.87219 4.296504,-0.68704 4.88994,0.0571 2.531803,3.17486 -0.807508,1.06762 -1.482508,2.88389 -1.5,4.03614 C 40.000022,117.68857 37.169523,121 35.411805,121 c -0.511892,0 -1.503662,0.91744 -2.203935,2.03875 -1.057048,1.69261 -1.012997,2.29898 0.259453,3.57143 1.947162,1.94716 1.975058,5.77779 0.05369,7.37238 -1.074416,0.89169 -1.211189,1.72783 -0.5,3.0567 1.384215,2.58643 1.363297,2.604 -2.555353,2.14652 -2.74822,-0.32083 -3.97155,0.0915 -5.5,1.85381 -2.110827,2.43381 -2.525003,3.42414 -1.05107,2.5132 0.503024,-0.31089 1.112279,5e-5 1.3539,0.69098 0.323672,0.92556 0.959144,0.79558 2.414151,-0.49377 3.3694,-2.98579 4.236172,-2.18738 3.799688,3.5 -0.221604,2.8875 -0.420784,5.8125 -0.442623,6.5 -0.02184,0.6875 -1.008176,2.21847 -2.191862,3.40216 -1.996743,1.99674 -2.029556,2.2418 -0.454398,3.39358 2.229886,1.63054 3.257559,7.96492 1.613578,9.9458 -1.005955,1.2121 -0.990244,1.82375 0.07997,3.11328 1.148691,1.38409 0.889204,1.96866 -1.88657,4.25 -1.770151,1.45485 -3.214399,3.20768 -3.209441,3.89518 0.01365,1.89313 0.869064,1.52423 3.465776,-1.49463 l 2.360828,-2.74462 0.704569,3.75567 c 0.387512,2.06562 1.103555,4.00226 1.591205,4.30364 1.454628,0.89901 1.004364,7.08735 -0.613363,8.42994 -2.094458,1.73825 -1.869279,3.67017 0.5,4.28975 1.391652,0.36392 2,1.36401 2,3.28789 0,1.52068 0.744744,3.58781 1.654988,4.59362 1.096184,1.21127 1.24089,1.82874 0.428571,1.82874 -1.816279,0 -3.574622,2.08727 -4.852387,5.7601 l -1.134177,3.26011 2.383128,-1.76011 c 1.31072,-0.96805 2.905214,-2.88446 3.543319,-4.25867 l 1.160191,-2.49857 1.553542,2.99857 c 0.854449,1.64921 2.050631,3.31969 2.658184,3.71216 0.607552,0.39248 1.129415,3.31748 1.159695,6.5 0.04321,4.54184 0.365841,5.70238 1.5,5.39572 0.79472,-0.21488 3.479702,-0.41392 5.966626,-0.44231 4.206544,-0.048 4.717288,-0.35184 7.32836,-4.35931 C 59.893713,219.93846 61.469126,218 61.850955,218 c 0.38183,0 1.584068,1.66592 2.67164,3.70204 5.387718,10.08675 20.154999,26.3445 30.531285,33.61283 9.18791,6.4359 17.93871,11.68513 19.47986,11.68513 0.80644,0 1.46626,0.39459 1.46626,0.87686 0,1.11375 6.99335,4.03678 18.5,7.73251 8.69028,2.79115 9.68827,2.89063 29,2.89063 18.17811,0 20.68321,-0.21351 27.5,-2.34385 4.125,-1.28912 8.85,-2.90911 10.5,-3.59999 1.65,-0.69088 4.4625,-1.82824 6.25,-2.52747 1.7875,-0.69923 3.25,-1.66674 3.25,-2.15001 0,-0.48327 0.63936,-0.87868 1.42079,-0.87868 1.82344,0 16.72179,-9.16272 22.5669,-13.87899 5.14903,-4.15463 19.62889,-18.53098 22.33073,-22.1711 1.00013,-1.34745 3.24276,-4.81241 4.98363,-7.69991 1.74087,-2.8875 3.52739,-5.25 3.97006,-5.25 0.44266,0 2.02503,2.03649 3.51637,4.52553 2.29297,3.82697 3.10359,4.45475 5.25155,4.06699 4.37911,-0.79053 10.82257,0.51162 11.29473,2.28254 0.32531,1.22012 0.46367,1.12668 0.5554,-0.37506 0.0672,-1.1 0.85252,-3.35 1.74518,-5 0.89266,-1.65 1.96882,-4.35 2.39148,-6 l 0.76846,-3 0.10236,3.30756 c 0.0563,1.81915 1.22736,5.32262 2.60236,7.78548 3.18338,5.70198 3.14766,8.42423 -0.17948,13.67683 l -2.67947,4.23013 -0.94122,-3.5 -0.94122,-3.5 -1.39055,3.93369 C 286.7419,245.03388 284.31243,248 282.1707,248 c -1.18736,0 -1.0607,0.49162 0.57964,2.25 l 2.09898,2.25 -1.99721,2.5 c -5.55513,6.95362 -16.52936,18.23704 -21.65026,22.26025 -5.13078,4.03097 -5.97166,4.38124 -7.62159,3.17478 -1.62583,-1.18884 -2.08008,-1.06933 -3.6835,0.96909 -2.45201,3.11723 -7.07802,4.91028 -11.37432,4.40871 -2.58065,-0.30128 -3.52244,-0.0286 -3.52244,1.01994 0,0.78714 -0.94525,2.96061 -2.10055,4.82993 -1.55808,2.52102 -3.23673,3.70265 -6.5,4.57544 -3.44714,0.92197 -4.39945,1.63593 -4.39945,3.29833 0,2.05135 -1.13047,2.73654 -12.5,7.5764 -3.01704,1.28431 -22.26581,5.75898 -25.16667,5.85037 -0.64166,0.0202 -1.56175,-1.14851 -2.04464,-2.59717 -0.78094,-2.34282 -1.04398,-2.46793 -2.37997,-1.13193 -3.5292,3.5292 -10.64894,2.92037 -14.40674,-1.23196 -1.70913,-1.88856 -1.8021,-1.87505 -5.26328,0.76492 -3.78996,2.89074 -11.21804,3.79488 -11.99628,1.46017 -0.6454,-1.93621 -2.95595,-1.43073 -3.53217,0.77273 -0.28766,1.1 -1.12764,1.93258 -1.86663,1.85017 -0.73899,-0.0824 -2.69362,-0.32791 -4.34362,-0.54555 z m 4.98356,-9.09567 c 1.12319,-5.84673 2.45427,-7.17088 7.23126,-7.19364 3.73873,-0.0178 5.80379,2.78226 4.85116,6.57783 -0.43506,1.7334 -1.29828,2.40686 -3.08503,2.40686 -2.72188,0 -3.36298,-1.7243 -0.98095,-2.63837 2.44544,-0.93841 1.74995,-3.36163 -0.96482,-3.36163 -5.51845,0 -5.36659,8.07254 0.17804,9.46416 5.31673,1.33441 10.42658,-2.41257 10.57807,-7.75675 0.1493,-5.26712 -2.42138,-8.402 -7.50245,-9.1491 -17.73133,-2.60711 -28.23619,-5.40963 -39.03594,-10.41414 -8.36773,-3.87753 -10.30245,-4.40202 -13.58155,-3.6818 -3.67418,0.80698 -6.58952,5.69678 -5.787457,9.7071 1.258214,6.29107 9.072447,9.11608 12.164127,4.39759 1.93317,-2.95039 0.51053,-6.56706 -2.5832,-6.56706 -2.1892,0 -2.5959,1.96892 -0.78149,3.78333 1.6448,1.6448 0.0947,2.8803 -1.98129,1.57917 -2.491215,-1.56137 -2.590123,-4.70132 -0.21578,-6.85007 2.71701,-2.45886 6.96688,-1.09719 8.85212,2.83624 1.18477,2.47194 1.09188,3.38595 -0.78828,7.75652 -2.0937,4.86693 -2.03688,6.89481 0.19319,6.89481 0.61889,0 2.95484,0.87563 5.19099,1.94584 6.03647,2.88902 18.50748,6.00919 23.04928,5.76678 3.97424,-0.21212 3.98593,-0.22498 5,-5.50367 z m 33.55926,4.76813 c 4.82105,-2.58014 4.40917,-8.97708 -0.578,-8.97708 -2.71477,0 -3.41026,2.42322 -0.96482,3.36163 2.38203,0.91407 1.74093,2.63837 -0.98095,2.63837 -1.82285,0 -2.65007,-0.67384 -3.11852,-2.54029 C 170.02794,296.99088 177.74426,293.74426 182,298 c 1.42586,1.42586 2,3.33333 2,6.6446 l 0,4.64461 6.42592,-0.60006 c 6.81547,-0.63644 14.34599,-2.68429 21.31318,-5.79592 2.33151,-1.04128 4.66745,-1.89323 5.19098,-1.89323 2.04444,0 2.06093,-2.12946 0.0507,-6.54226 -2.49816,-5.48379 -1.7486,-9.15273 2.3408,-11.45774 2.87151,-1.61855 5.07785,-0.89925 7.1065,2.31683 1.28467,2.03661 -0.2594,5.00956 -2.86821,5.52247 -1.44425,0.28395 -1.54912,0.009 -0.64282,-1.68425 C 224.5123,286.17424 224.24709,285 221.97856,285 c -1.20997,0 -2.50018,1.05073 -3.21404,2.61747 -1.05257,2.31016 -0.91964,2.8385 1.13222,4.5 1.27866,1.03539 3.20959,1.88253 4.29097,1.88253 2.89099,0 7.81229,-5.35452 7.81229,-8.5 0,-6.01887 -8.55633,-10.54457 -13.52749,-7.15509 -6.67392,4.55046 -28.17827,10.87109 -44.60734,13.11115 -2.7636,0.37681 -5.37869,1.4539 -6.47728,2.66782 -2.42713,2.68195 -2.43297,9.06384 -0.0107,11.74038 1.58599,1.75251 2.91806,2.32836 6.93858,2.99956 0.44866,0.0749 1.67585,-0.32413 2.72708,-0.88674 z M 73.049436,293.90309 c 1.149547,-2.25329 1.946193,-4.18147 1.770324,-4.28484 -0.426796,-0.25085 -8.863675,-6.9672 -12.354438,-9.835 -8.066794,-6.6272 -23.739318,-24.08973 -27.249028,-30.36124 -0.767408,-1.37128 -1.341461,-1.28857 -4.794048,0.69076 -2.157236,1.23671 -4.071206,2.35373 -4.253267,2.48225 -0.60416,0.42651 2.093594,4.84458 5.736486,9.39456 1.976994,2.46927 4.044534,5.07052 4.594534,5.78056 C 42.331308,275.29824 67.654294,298 70.220304,298 c 0.406476,0 1.679586,-1.84361 2.829132,-4.09691 z m 91.718134,-5.96358 -1.42648,-2.94536 -1.33953,2.50293 c -1.11658,2.08635 -1.11778,2.91724 -0.007,4.99229 1.32376,2.47347 1.34144,2.4763 2.76601,0.44244 1.24262,-1.77409 1.24358,-2.43955 0.007,-4.9923 z m -5.31143,-1.85468 1.50749,-2.91518 -3.73181,-0.54342 C 155.17932,282.32736 150.575,281.79863 147,281.45129 136.61998,280.44279 109,270.54301 109,267.83102 109,267.37396 108.325,267 107.5,267 c -1.03362,0 -1.5,1.03739 -1.5,3.33648 0,3.02215 0.49596,3.58741 5.26435,6 2.8954,1.46494 6.0454,2.66352 7,2.66352 0.95461,0 1.73565,0.36793 1.73565,0.81762 0,1.03305 11.18777,4.549 21,6.59961 15.49354,3.23792 16.62034,3.21763 18.45614,-0.3324 z m 30.61484,-0.55525 c 5.26403,-1.27407 11.65184,-3.26443 14.19513,-4.42303 2.54329,-1.1586 4.98635,-2.09078 5.42903,-2.07151 0.44267,0.0193 3.37503,-1.21822 6.51635,-2.75 3.60422,-1.75749 5.54122,-3.27641 5.25,-4.11683 C 221.20767,271.43573 221,269.97323 221,268.91821 221,267.8632 220.325,267 219.5,267 c -0.825,0 -1.5,0.37396 -1.5,0.83102 0,0.45706 -1.0125,1.33249 -2.25,1.9454 -12.31516,6.09944 -27.43908,10.78368 -39.19959,12.14106 -5.47227,0.6316 -10.09736,1.29614 -10.27798,1.47675 -0.18061,0.18062 0.14471,1.57274 0.72295,3.09361 1.03724,2.72816 1.13475,2.75578 7.27797,2.06171 3.42466,-0.38692 10.53359,-1.74591 15.79763,-3.01997 z m -100.796644,-2.6764 c 5.465202,-2.92489 7.364065,-9.35989 3.942394,-13.36026 -0.944202,-1.10389 -3.716619,-3.46546 -6.160928,-5.24793 -8.587279,-6.26214 -17.923954,-15.36443 -23.959872,-23.35839 -3.352762,-4.4404 -6.095931,-8.42682 -6.095931,-8.85871 0,-1.50742 -5.956462,-3.25563 -8.724994,-2.56078 -3.900099,0.97887 -5.131968,2.25351 -5.843525,6.04643 -0.817187,4.35599 0.163678,7.17509 3.185326,9.15495 3.59063,2.35267 7.642118,0.42399 7.1988,-3.42694 -0.22675,-1.96968 -0.878697,-2.74155 -2.315607,-2.74155 -1.555095,0 -1.926233,0.55613 -1.668393,2.5 0.308673,2.3271 0.215117,2.38668 -1.352779,0.86151 -1.076589,-1.04726 -1.44842,-2.38196 -1.030454,-3.69885 1.706628,-5.37711 9.551626,-2.6758 9.551626,3.28896 0,3.49113 -0.596292,4.34136 -5.88009,8.38424 l -3.052829,2.33586 2.175727,3.16414 C 51.739475,258.96674 70.856216,278 72.006358,278 c 0.419992,0 1.438486,-1.0125 2.263321,-2.25 4.599024,-6.89992 8.990745,-8.63427 12.901579,-5.09501 3.257972,2.94842 2.087238,6.74006 -2.431276,7.87413 -2.158562,0.54177 -2.739983,0.33709 -2.739983,-0.96455 0,-1.01884 0.670883,-1.5396 1.75,-1.35841 1.181279,0.19835 1.75,-0.35613 1.75,-1.70616 0,-1.43206 -0.771019,-2.0889 -2.715122,-2.31306 -2.22013,-0.25598 -2.835924,0.16826 -3.377745,2.32705 -0.791525,3.15369 0.978958,6.87441 3.957418,8.31663 2.829339,1.37001 3.388061,1.37215 5.909786,0.0226 z M 246,280.76242 c 0,-0.57307 0.76969,-1.60475 1.71043,-2.29263 1.44091,-1.05362 1.52308,-1.66188 0.52144,-3.86024 C 246.6945,271.23539 241,270.75542 241,274 c 0,1.31195 0.66667,2 1.93785,2 1.3214,0 1.88993,0.63622 1.7872,2 -0.11127,1.47709 -0.86754,2 -2.89254,2 -2.34775,0 -2.83735,-0.50886 -3.40599,-3.53999 -0.84779,-4.51908 1.53307,-7.46001 6.03931,-7.46001 2.45139,0 4.07509,0.99332 7.27386,4.44989 l 4.11801,4.44988 2.82115,-2.18428 c 4.1601,-3.22098 4.59775,-3.56836 7.22416,-5.73403 1.32166,-1.0898 2.1835,-1.98146 1.91521,-1.98146 -0.26829,0 1.72896,-2.3625 4.43833,-5.25 2.70938,-2.8875 5.78158,-6.4396 6.8271,-7.89356 l 1.90096,-2.64357 -3.07867,-2.35643 C 272.59281,245.78974 272,244.9461 272,241.45162 c 0,-4.53587 3.79449,-7.32192 7.60657,-5.58502 1.93616,0.88218 2.45108,1.77137 2.20904,3.81473 -0.42079,3.55235 -2.81561,4.31955 -2.81561,0.902 0,-3.20659 -2.46709,-3.44761 -4.09794,-0.40033 -0.9947,1.85861 -0.83487,2.45299 1.0756,4 2.99973,2.42903 4.63935,2.2909 7.56779,-0.63755 4.01848,-4.01847 2.73619,-11.72747 -2.26711,-13.62973 -5.30592,-2.0173 -8.49554,-0.45934 -12.98107,6.34058 -5.16214,7.82565 -15.17293,18.93858 -16.38533,18.18928 -0.50157,-0.30999 -0.91194,-0.0846 -0.91194,0.50085 0,0.58546 -2.925,3.16867 -6.5,5.74046 -3.575,2.57179 -6.5,5.04434 -6.5,5.49455 0,0.45021 -0.49037,0.81856 -1.08971,0.81856 -2.10913,0 -4.84402,4.52861 -4.87702,8.07569 -0.0357,3.83887 2.7779,7.37828 6.46673,8.13484 2.55993,0.52504 7.5,-1.08748 7.5,-2.44811 z M 102.08179,274 C 102.5868,274 103,272.425 103,270.5 c 0,-3.95388 -1.423,-4.4713 -4.030031,-1.46537 -2.047525,2.36081 -1.50588,6.385 0.743239,5.52193 C 100.51091,274.25045 101.57677,274 102.08179,274 z m 127.1989,-0.96537 C 229.81985,270.97288 227.08903,267 225.1327,267 224.50947,267 224,268.54125 224,270.42668 c 0,3.21805 0.53869,3.79895 4.13337,4.45732 0.34835,0.0638 0.86465,-0.76842 1.14732,-1.84937 z M 99.411615,265.09766 c 1.656735,-1.83067 1.502465,-2.04656 -4.095012,-5.73072 -7.770663,-5.11451 -23.141509,-20.42668 -27.9458,-27.83913 -2.128942,-3.2847 -4.180832,-6.4168 -4.559754,-6.96023 -0.417027,-0.59808 -1.502431,-0.25186 -2.75,0.87717 -2.30319,2.08436 -2.522195,3.07944 -1.066866,4.84746 0.546802,0.66428 3.691342,4.80779 6.987868,9.20779 5.808006,7.75217 11.570632,13.48041 23.017948,22.88058 6.129864,5.03366 7.897647,5.49499 10.411616,2.71708 z m 134.934015,-0.33814 c 10.24647,-7.27785 20.9648,-16.79521 26.5041,-23.53438 8.28987,-10.08554 9.58096,-12.56264 7.92761,-15.21007 C 268.0852,224.90678 267.04312,224 266.4616,224 c -0.58152,0 -2.80923,2.74996 -4.95047,6.11101 -5.6469,8.86384 -20.89255,23.57412 -31.21977,30.12344 -4.377,2.77581 -4.46017,2.92154 -2.74751,4.81401 2.2432,2.4787 2.94733,2.44879 6.80178,-0.28894 z M 29.999999,244.99932 c 0,-1.61247 0.495416,-1.85024 2.8669,-1.37594 2.476767,0.49535 2.957043,0.21422 3.529317,-2.0659 0.364329,-1.4516 1.099224,-2.36931 1.6331,-2.03936 0.533876,0.32995 0.970683,-0.52235 0.970683,-1.894 0,-1.37166 0.474956,-3.74315 1.055459,-5.26999 0.580502,-1.52683 0.789596,-3.83534 0.464654,-5.13002 -0.769787,-3.06707 -4.501483,-2.66754 -6.153578,0.65884 l -1.183529,2.38295 -1.33205,-2.13295 C 31.118328,226.95983 29.796896,226 28.91444,226 c -2.456391,0 -4.916126,3.27755 -4.281373,5.70485 0.432613,1.65432 0.05546,2.20539 -1.685759,2.46313 -3.419438,0.50615 -4.741958,3.29646 -2.655268,5.60222 0.93938,1.03801 1.70796,3.22435 1.70796,4.85854 0,1.63419 0.516939,3.4882 1.148755,4.12002 1.649663,1.64966 6.851244,-1.19698 6.851244,-3.74944 z M 17.5,235 c 0.34913,-1.1 1.00631,-2 1.4604,-2 0.45409,0 1.07965,-0.66198 1.39012,-1.47106 0.69747,-1.81758 -2.1363,-4.82512 -3.90635,-4.14589 -0.71387,0.27394 -1.83595,-0.15018 -2.4935,-0.94249 C 13.29311,225.64825 12.12365,225 11.35187,225 c -1.17812,0 -1.15961,0.47111 0.11537,2.93665 0.83523,1.61516 1.24035,3.66178 0.90026,4.54805 -0.37118,0.96727 0.13131,2.17906 1.25707,3.03154 2.52652,1.91319 3.12987,1.83281 3.87543,-0.51624 z m 277.47776,-2.80902 c -0.0125,-2.0698 -0.86198,-4.78395 -1.93411,-6.17937 l -1.91188,-2.48838 -1.11104,2.92226 c -0.83661,2.20044 -0.80516,3.67961 0.12734,5.98838 2.31739,5.73765 4.86495,5.60953 4.82969,-0.24289 z M 23.999999,225 c 0,-0.55 1.094676,-1 2.432612,-1 2.770045,0 3.425288,-1.49323 3.43657,-7.83158 0.0042,-2.38238 0.720784,-5.41988 1.592317,-6.75 1.434816,-2.18981 1.436338,-2.41842 0.0161,-2.41842 -0.862679,0 -2.708777,1.14027 -4.10244,2.53393 l -2.533934,2.53394 -2.059498,-2.61823 c -2.298046,-2.92149 -3.738666,-1.95651 -3.766416,2.52287 l -0.0153,2.4725 -1.5567,-2.2225 c -2.15099,-3.07096 -3.4433,-2.77916 -3.4433,0.77749 0,2.53333 -0.38889,3 -2.5,3 -3.06313,0 -3.2867,1.61554 -0.35245,2.54683 1.18116,0.37488 3.67116,2.20521 5.53334,4.06739 3.21033,3.21033 7.319109,4.54965 7.319109,2.38578 z m 17.45406,-2.74088 c 0.774801,-2.0191 -0.335809,-5.45024 -1.526056,-4.71462 -0.510402,0.31544 -0.942316,-0.69052 -0.959807,-2.23548 -0.02886,-2.54911 -0.154718,-2.6471 -1.360243,-1.05902 -0.730642,0.9625 -1.811006,1.75 -2.400809,1.75 -1.441672,0 -2.486407,3.54476 -1.738884,5.9 0.767675,2.41873 7.086413,2.70288 7.985799,0.35912 z M 11.80681,209.18645 c 0.30557,-4.14146 0.31641,-4.15182 2.70602,-2.58609 2.56715,1.68206 4.48717,1.18598 4.48717,-1.15938 0,-1.91207 0.56397,-1.82323 3.850404,0.60654 3.005053,2.22173 6.465504,1.68661 9.023311,-1.39536 C 33.794073,202.33827 32.352311,199 29.432611,199 c -2.036236,0 -2.432612,-0.48883 -2.432612,-3 0,-2.54325 -0.385402,-3 -2.531385,-3 -1.466837,0 -2.807634,0.71988 -3.188264,1.71181 -0.51794,1.34973 -0.82483,1.08533 -1.45089,-1.25 -0.47774,-1.78205 -0.40275,-3.09459 0.18826,-3.29514 0.54026,-0.18334 0.96797,-1.08334 0.95048,-2 -0.0288,-1.51077 -0.14576,-1.51847 -1.25,-0.0823 -0.67001,0.87139 -2.4557,1.89247 -3.9682,2.26905 -2.02241,0.50354 -2.75,1.30441 -2.75,3.02697 0,1.93628 -0.418,2.26237 -2.41148,1.88129 -2.96,-0.56584 -4.93658,2.50335 -4.00431,6.21781 C 6.97537,203.038 6.79377,204 6.10841,204 c -1.90016,0 -1.21316,5.51044 0.98055,7.86512 2.87066,3.08129 4.35503,2.2385 4.71785,-2.67867 z m 18.433365,-22.80208 c -0.878055,-5.79831 -0.910562,-5.84426 -2.222586,-3.14219 -0.997922,2.0552 -1.650496,2.47744 -2.604805,1.68544 -0.939045,-0.77934 -1.55413,-0.53203 -2.343046,0.94207 -1.995418,3.72847 -1.363708,5.40045 1.861557,4.92709 2.314984,-0.33977 3.043982,6.8e-4 3.467247,1.61925 0.389305,1.4887 0.836489,1.74894 1.634336,0.95109 0.757053,-0.75705 0.821473,-2.927 0.207297,-6.98275 z m -12.500015,0.36208 c 0.6821,-0.53626 3.05499,-3.63372 5.273098,-6.88326 3.352305,-4.91112 3.763698,-6.01155 2.437649,-6.5204 -0.896275,-0.34394 -2.884953,0.34133 -4.538597,1.56392 -3.12416,2.30979 -3.48635,2.05594 -4.14711,-2.90671 -0.33186,-2.4924 -0.33912,-2.49011 -2.38836,0.75035 l -2.05549,3.25036 -1.13923,-2.50036 C 10.55553,172.12516 9.61355,171 9.08883,171 7.85697,171 6.68236,174.67704 7.49447,175.99105 7.83743,176.54597 7.66803,177 7.11803,177 c -0.55,0 -1.27811,-0.45 -1.61803,-1 -0.33992,-0.55 -1.49148,-1 -2.55902,-1 -2.4092,0 -2.47859,1.41662 -0.19098,3.899 0.9625,1.04445 2.875,3.49392 4.25,5.44327 2.0829,2.95295 3.08394,3.5305 6,3.46173 1.925,-0.0454 4.05807,-0.52129 4.74016,-1.05755 z m 10.258812,-31.99351 c 1.000758,-1.23588 1.415781,-2.49661 0.922274,-2.80161 -0.510402,-0.31545 -0.382963,-1.91715 0.295566,-3.71478 1.366999,-3.62159 0.252949,-5.59947 -1.671519,-2.96761 -0.723061,0.98885 -1.961437,1.5086 -2.814484,1.18126 -0.922169,-0.35387 -2.156181,0.31902 -3.127059,1.70513 -2.28199,3.258 -1.98846,4.84467 0.896249,4.84467 1.375,0 2.446711,0.3375 2.381579,0.75 -0.240496,1.52314 0.135761,3.25 0.708128,3.25 0.324339,0 1.408509,-1.01118 2.409266,-2.24706 z m -9.112772,-9.3354 c 1.11725,-1.42036 2.28988,-3.39696 2.60584,-4.39246 0.31596,-0.99549 1.903783,-2.36061 3.528503,-3.03359 3.660126,-1.51607 2.836985,-3.33875 -1.115744,-2.47058 C 21.12059,136.13243 21,136.01032 21,132.57946 c 0,-4.25956 -1.13536,-4.53742 -3.76875,-0.92235 l -1.93557,2.6571 -0.66689,-2.6571 C 13.74691,128.14345 12.14384,128.28892 10.85015,132 9.70587,135.28249 8.53264,135.83042 7.63837,133.5 7.32179,132.675 6.35781,132 5.4962,132 4.25726,132 4.14613,132.40452 4.96482,133.93426 5.53417,134.9981 6,137.18741 6,138.7994 c 0,3.44869 3.65133,8.54837 5.58837,7.80506 0.74117,-0.28441 1.61355,-0.0868 1.93862,0.43921 1.0489,1.69716 3.27688,1.02113 5.35921,-1.62613 z M 31.478365,131.75 c 1.495017,-2.11323 1.448309,-2.37471 -0.768399,-4.30159 -1.990782,-1.7305 -2.143941,-2.25359 -0.978588,-3.34219 0.772945,-0.72204 1.246569,-2.68174 1.075104,-4.44841 -0.26356,-2.71555 -0.691624,-3.15229 -3.056483,-3.11839 -2.45475,0.0352 -2.75,-0.3164 -2.75,-3.27475 0,-2.63754 -0.523776,-3.51331 -2.565475,-4.28956 -1.730804,-0.65805 -3.224424,-0.62273 -4.590864,0.10856 -1.69575,0.90754 -1.96991,1.88417 -1.68452,6.00076 0.40296,5.81256 -0.27115,6.26017 -2.04406,1.35726 -0.98373,-2.72044 -1.77225,-3.48571 -3.34876,-3.25 -3.0264,0.45249 -4.54672,3.32904 -3.03708,5.74637 1.0372,1.66081 0.9171,2.03941 -0.82205,2.5914 C 4.27717,122.36419 2.93351,125.91286 4.26787,128.5 5.8768,131.61947 9,133.20857 9,130.90773 c 0,-0.60075 0.86402,-2.19069 1.92004,-3.53321 l 1.92004,-2.44093 1.54704,2.20872 c 1.35473,1.93414 1.86778,2.06258 4.12702,1.0332 C 22.0333,126.57208 22,126.54987 22,130.5 c 0,3.40828 0.10334,3.5 3.943295,3.5 2.951041,0 4.343836,-0.56617 5.53507,-2.25 z m 5.035085,-14.99596 c 0.0074,-0.86559 0.794898,-2.43728 1.75,-3.49266 2.506246,-2.76937 2.148482,-3.59377 -1.263451,-2.91138 -1.692308,0.33846 -3,0.175 -3,-0.375 0,-1.50463 -1.47879,-1.16163 -3.84699,0.8923 -2.841183,2.46414 -2.728295,4.1327 0.279602,4.1327 1.576074,0 2.662273,0.7236 3.084859,2.05505 0.738097,2.32553 2.975452,2.10074 2.99598,-0.30101 z M 11.9199,110.25 c 0.94015,-1.61414 1.02164,-1.59687 1.04969,0.22251 0.0282,1.82728 0.14985,1.80198 1.65273,-0.34368 1.26831,-1.81077 1.43197,-3.20558 0.75,-6.39198 -1.05216,-4.916074 -3.0353,-5.936064 -4.00108,-2.05789 -0.38639,1.55157 -1.36935,3.31352 -2.18434,3.91545 -1.00889,0.74513 -1.2691,1.94194 -0.81531,3.75 0.77024,3.06887 2.09186,3.40617 3.54831,0.90559 z m 20.999919,-5.34231 c 2.09351,-1.27628 4.517449,-1.92374 6.25,-1.66946 1.556599,0.22846 2.83018,0.0433 2.83018,-0.41142 0,-1.63214 -4.041975,-4.826814 -6.106989,-4.826814 -1.269463,0 -1.920259,-0.49687 -1.637227,-1.25 1.925831,-5.12449 1.97163,-6.05124 0.266715,-5.397 -0.939566,0.36054 -2.799687,0.92945 -4.133603,1.26424 -2.257538,0.56661 -2.357513,0.43042 -1.445309,-1.96886 1.26516,-3.32762 -0.377762,-4.47042 -3.0066,-2.09135 -1.762926,1.59543 -1.936987,1.60423 -1.936987,0.098 0,-0.91024 -0.188196,-1.65499 -0.418213,-1.65499 -0.230016,0 -1.072606,-0.25111 -1.872416,-0.55803 -1.08712,-0.41716 -1.33895,0.045 -0.9976,1.83061 0.25114,1.31375 -0.16599,3.92737 -0.92697,5.80803 -1.88772,4.66531 -0.91515,8.557344 2.715199,10.865674 3.93357,2.50113 6.268026,2.49248 10.41982,-0.0386 z m 14.458157,-8.132254 c 0.775471,-1.23863 0.767015,-2.55296 -0.03001,-4.66452 -0.967823,-2.56405 -0.869222,-3.00285 0.771161,-3.43182 1.326677,-0.34693 1.880872,-1.39777 1.880872,-3.56642 0,-2.46048 -0.508591,-3.20222 -2.546351,-3.71367 -2.330727,-0.58497 -2.415407,-0.78378 -1,-2.34779 2.005207,-2.21573 1.964352,-4.931848 -0.108637,-7.222475 -2.159407,-2.386119 -4.446931,-2.314088 -7.173262,0.225876 -1.994767,1.858408 -2.353834,1.906157 -3.75999,0.5 C 34.55672,71.699578 33.137218,71 32.257311,71 c -2.288835,0 -5.257312,2.97111 -5.257312,5.261976 0,1.3072 -0.485931,1.76553 -1.471061,1.3875 -2.357889,-0.9048 -4.773708,2.23917 -4.021978,5.23426 1.018674,4.05874 3.360442,5.106 5.850182,2.61626 2.519477,-2.51947 3.89715,-1.80391 3.475792,1.80532 l -0.385877,3.30532 3.523853,-1.21145 c 4.494521,-1.54514 5.093933,-1.11208 3.955416,2.8577 -1.239187,4.32079 -1.249286,4.27848 1.323673,5.54524 3.087287,1.51999 6.829518,1.04729 8.127977,-1.02669 z m 7.995827,-13.89989 c 1.357351,-0.61845 2.247235,-1.69953 1.977521,-2.40239 -0.269714,-0.70287 0.8909,-2.09388 2.579143,-3.09115 4.472703,-2.64209 3.77468,-3.538354 -2.180468,-2.799715 -5.861078,0.726975 -10.472011,3.819685 -7.433277,4.985755 0.925802,0.35526 1.683277,1.49779 1.683277,2.53894 0,2.21625 0.130978,2.24609 3.373804,0.76856 z m 2.649368,-13.984822 c 3.391237,-2.086649 5.88198,-2.950847 7.573055,-2.627578 1.793648,0.342878 2.375411,0.105326 2.018683,-0.824291 -0.298615,-0.77818 0.183112,-1.258927 1.191968,-1.189542 0.931217,0.06404 2.979116,-0.211595 4.550887,-0.612533 2.358653,-0.601662 2.776573,-1.153706 2.392884,-3.160841 -0.334134,-1.747914 0.05677,-2.597429 1.389912,-3.020551 1.020135,-0.323779 2.145188,-1.74572 2.500117,-3.15987 0.493369,-1.965739 0.11479,-2.971366 -1.607743,-4.270675 -2.006993,-1.513878 -2.105321,-1.936072 -0.900296,-3.865624 1.897957,-3.039113 0.03362,-5.732778 -3.763768,-5.438041 -1.567311,0.121648 -3.021106,0.735528 -3.230656,1.364178 -0.209551,0.628651 -1.377733,-0.107021 -2.595961,-1.634824 l -2.21496,-2.777826 -2.127173,2.127173 c -1.174366,1.174366 -2.393905,1.695588 -2.722663,1.163646 C 60.149936,40.433586 58.793896,40 57.464035,40 c -3.351043,0 -5.841353,4.0056 -4.966548,7.988564 0.635277,2.892394 0.877866,3.031645 4.196745,2.40902 3.491406,-0.654992 3.516674,-0.634323 2.862986,2.341901 -0.623339,2.838043 -0.511136,2.974362 2.045847,2.485564 2.559463,-0.489273 2.672183,-0.351294 2.090208,2.558582 -0.396238,1.981191 -0.184218,3.250604 0.595788,3.567109 0.666016,0.270251 -0.303316,0.526892 -2.154072,0.570313 l -3.36501,0.07895 1.722796,-2.629319 1.722796,-2.629319 -3.107786,0.456126 c -3.534227,0.518715 -3.7322,0.139001 -1.551082,-2.974982 1.417031,-2.023095 1.411132,-2.222506 -0.06574,-2.222506 -0.892345,0 -2.439191,0.437108 -3.437434,0.971352 -1.53314,0.820512 -1.911086,0.490862 -2.43382,-2.122808 C 51.097025,48.235128 50.767753,47.947862 49.500438,48.999639 48.675197,49.684528 48,50.897161 48,51.694378 c 0,0.797217 -1.171977,3.449313 -2.604394,5.893548 -2.940231,5.017124 -2.699735,9.412077 0.515038,9.412077 1.163387,0 2.110167,0.94678 2.5,2.5 0.846485,3.372664 3.404562,3.210524 9.612528,-0.609276 z M 39.999999,69 c 2.110562,-2.110562 2.68845,-5 1,-5 -0.55,0 -1,-1.098442 -1,-2.440983 0,-3.564892 -1.632072,-3.997383 -4.151259,-1.100064 C 34.633563,61.856529 33.093624,63 32.426652,63 c -1.367288,0 -2.426653,2.218475 -2.426653,5.081787 0,2.287955 1.308518,2.466838 3.32131,0.454045 1.285557,-1.285556 1.526826,-1.224562 1.977809,0.5 0.654902,2.504349 2.172266,2.492783 4.700881,-0.03583 z m 46.35507,-13.582759 c 0.835255,-0.320517 1.295219,-1.164997 1.022143,-1.876622 -0.298537,-0.777977 0.540382,-1.554105 2.104041,-1.946558 C 92.316954,50.882345 92.002548,49 89.047971,49 c -1.008697,0 -2.093016,-0.675 -2.409598,-1.5 -0.630726,-1.643646 -4.333181,-1.979303 -6.524558,-0.591504 -1.125484,0.71277 -0.990117,1.216993 0.71977,2.681044 1.465742,1.255008 1.930187,2.503482 1.527776,4.106817 -0.597821,2.381905 0.7536,2.96423 3.993708,1.720884 z m -1.35507,-11.83028 c -2.889301,-0.7243 -4.744832,-0.779874 -5.184017,-0.155264 -1.20815,1.718235 -0.09717,2.105566 4.847244,1.689929 l 4.836773,-0.406589 -4.5,-1.128076 z m 13,1.367584 c 0,-0.575 -1.149512,-2.194966 -2.554472,-3.599926 -2.099734,-2.099734 -2.313517,-2.759204 -1.200918,-3.704546 0.744455,-0.63254 2.000222,-1.99921 2.790593,-3.037045 1.356751,-1.781545 1.228299,-1.862602 -2.299082,-1.450801 C 90.751467,33.627413 89.78169,32.255996 92.499999,30 c 0.825,-0.684689 1.5,-1.91487 1.5,-2.733736 0,-1.145349 -0.767986,-1.344771 -3.328742,-0.86437 -3.212969,0.602757 -3.313966,0.523796 -2.903882,-2.270287 0.554654,-3.779095 -1.135998,-4.744156 -3.08911,-1.763332 -0.847276,1.293107 -2.153002,2.976743 -2.901614,3.741414 -1.984896,2.027476 -4.075478,7.597783 -3.313955,8.829954 C 78.823131,35.522839 79.704073,36 80.420344,36 c 0.843383,0 1.137005,0.864744 0.833218,2.453901 -0.392041,2.050834 3.11e-4,2.552868 2.388672,3.056425 6.977932,1.471211 11.449576,2.829211 11.942543,3.626848 0.745096,1.20559 2.415222,1.079302 2.415222,-0.182629 z M 106.31174,40.75 c -0.16928,-2.472611 0.13837,-2.75 3.05,-2.75 5.41497,0 7.82847,-4.757466 3.56976,-7.036661 -2.05007,-1.097166 -2.04562,-1.128235 0.5,-3.487435 3.12299,-2.894286 3.30561,-6.011048 0.44201,-7.543601 -1.5616,-0.835739 -2.76952,-0.845085 -4.54706,-0.03518 C 106.12261,21.35689 106,21.324527 106,19.019052 c 0,-2.766212 -4.48062,-3.799056 -6.91674,-1.594402 -1.631543,1.476526 -1.902138,1.489733 -2.428321,0.118522 -0.729382,-1.900738 -4.015651,-2.018395 -5.526557,-0.197864 -0.614078,0.739919 -1.406858,2.797069 -1.761733,4.571444 l -0.645228,3.226136 3.639289,-0.682735 c 3.368299,-0.631897 3.639289,-0.503185 3.639289,1.728556 0,1.32621 -0.484094,2.895385 -1.075764,3.487055 -0.767684,0.767684 -0.173441,1.390314 2.075007,2.174128 3.242878,1.130473 3.266438,1.822665 0.184182,5.410586 -1.367751,1.59214 -1.284501,2.003029 0.87063,4.297061 1.729318,1.840775 3.214556,2.455095 5.414466,2.239521 2.62354,-0.257085 3.00615,-0.66712 2.84322,-3.04706 z M 78.999999,38.5 c 0,-0.825 -0.188196,-1.5 -0.418213,-1.5 -0.230016,0 -1.174575,-0.290244 -2.099019,-0.644986 -1.488448,-0.571171 -1.527501,-0.399506 -0.34124,1.5 1.559025,2.496396 2.858472,2.789603 2.858472,0.644986 z m 42.418211,0.893011 C 122.2882,39.059167 123,38.187679 123,37.45637 c 0,-0.769176 1.36994,-1.46174 3.25,-1.643012 4.16136,-0.401229 4.30797,-2.908775 0.25,-4.27587 -1.65,-0.555871 -3.35986,-1.579208 -3.79969,-2.274082 -0.84011,-1.32727 -4.46846,-1.673342 -7.07146,-0.674477 -1.24676,0.478425 -1.31078,0.947513 -0.34124,2.5 C 115.94403,32.140018 117.11759,33 117.89553,33 c 1.09636,0 1.01499,0.441391 -0.36182,1.962755 -3.02341,3.340823 -0.56955,6.139436 3.8845,4.430256 z M 73.547748,36.353977 c 2.757429,-2.975315 3.017451,-3.98007 1.202251,-4.645644 -1,-0.366666 -1,-0.723333 0,-1.783333 1.357858,-1.439329 1.714743,-4.938779 0.5,-4.902764 -0.4125,0.01223 -1.875,0.902223 -3.25,1.977764 -1.375,1.075541 -2.990268,1.965534 -3.589485,1.977764 -1.068095,0.0218 -3.410515,4.190326 -3.410515,6.069289 0,0.524121 0.9,0.952947 2,0.952947 1.111111,0 2,0.666667 2,1.5 0,2.263789 1.810464,1.807556 4.547749,-1.146023 z M 137,29 c 0,-1.980114 0.0205,-1.979502 2.06149,0.06149 2.63428,2.634279 6.3291,2.208015 6.75383,-0.779176 0.27395,-1.926774 0.56955,-2.058908 2.25345,-1.007295 2.4367,1.521743 5.28984,-0.02899 5.75057,-3.125537 0.22946,-1.542161 -0.40384,-2.421214 -2.25,-3.123122 -3.7273,-1.417115 -3.17719,-1.871505 2.0439,-1.688268 3.41946,0.120009 4.90608,-0.290947 5.74488,-1.588095 1.55359,-2.402495 -0.28165,-5.157047 -3.70864,-5.566389 -2.28972,-0.273499 -2.50701,-0.58131 -1.60289,-2.270667 1.25225,-2.339856 0.68946,-3.4872 -2.06369,-4.207166 -1.43247,-0.374599 -2.52399,0.190402 -3.6306,1.879293 -2.17633,3.321507 -2.8523,3.034064 -2.8523,-1.212891 0,-5.410269 -2.39424,-6.452959 -6.90944,-3.009051 C 134.0636,6.816008 133.75197,10 137.94098,10 c 3.72668,0 4.74384,1.555374 2.09782,3.20784 -2.68137,1.674548 -2.5765,2.224743 0.7112,3.731239 l 2.75,1.260109 -3.46223,2.900406 C 136.62438,23.959096 134,24.837858 134,23.12132 c 0,-0.483273 1.35,-1.437868 3,-2.12132 1.65,-0.683452 3,-1.589902 3,-2.014332 C 140,18.009131 137.4174,17 134.91821,17 132.22801,17 132.53047,15.534963 135.5,14.181954 139.02877,12.574137 138.60267,11 134.63867,11 c -3.12103,0 -3.3257,-0.196591 -2.86304,-2.75 l 0.49829,-2.75 -2.38696,2.122719 c -1.31283,1.167496 -3.73696,2.553032 -5.38696,3.078969 -3.13868,1.000455 -5.87164,4.930252 -4.68902,6.742478 0.37896,0.580709 0.68902,2.130079 0.68902,3.443046 0,2.0063 0.79782,2.616609 5,3.824869 2.75,0.790711 6.11477,2.528966 7.47727,3.862788 C 135.9893,31.523502 137,31.630314 137,29 z m 11.56476,-15.895215 c -0.3043,-0.492369 0.0751,-1.136363 0.84322,-1.431099 1.46629,-0.562671 2.59202,0.08574 2.59202,1.492981 0,1.116759 -2.73727,1.06745 -3.43524,-0.06188 z M 120.15322,24.753219 C 119.11812,23.718117 117,24.532375 117,25.965397 c 0,0.46605 0.92974,0.604232 2.06609,0.30707 1.34778,-0.352452 1.72573,-0.880642 1.08713,-1.519248 z M 118,19.581787 c 0,-1.485703 -1.35192,-3.482325 -2.06111,-3.044018 C 114.90448,17.177066 115.85689,20 117.10699,20 117.59814,20 118,19.811804 118,19.581787 z m -3.0279,-4.048165 c 0.66934,-0.806508 1.00816,-2.044008 0.75293,-2.75 -0.25523,-0.705992 0.22447,-2.073881 1.06599,-3.039753 2.17477,-2.496111 0.93257,-3.137778 -3.34284,-1.726768 -2.38905,0.78846 -3.90788,0.867817 -4.317,0.225558 -0.9067,-1.423403 -4.79437,0.259489 -6.05924,2.622921 -0.92237,1.723469 -0.68044,2.061497 1.87756,2.623329 1.99973,0.439215 2.76096,1.102054 2.38645,2.078013 -0.76046,1.981707 5.98826,1.952277 7.63615,-0.0333 z M 254.61501,299.53518 C 253.72675,298.17953 253,296.60453 253,296.03518 253,295.46583 252.56156,295 252.02568,295 c -0.53588,0 -1.63304,-1.27383 -2.43814,-2.83072 -1.34069,-2.59261 -1.29983,-2.97114 0.48575,-4.5 1.07226,-0.91811 2.28193,-1.66983 2.68814,-1.6705 1.49952,-0.002 15.93443,-12.46395 22.01599,-19.00611 5.91549,-6.3635 16.79543,-20.2847 17.57471,-22.48735 0.19562,-0.55292 1.24435,-0.21782 2.33051,0.74468 3.01111,2.66829 5.06468,2.17694 5.85025,-1.39975 0.76995,-3.50555 9.03168,-12.25989 12.65545,-13.41003 2.77088,-0.87944 7.81166,-4.51131 7.81166,-5.62828 0,-1.20466 -2.16377,-0.97508 -5.06129,0.53701 l -2.56129,1.33663 0.72076,-5.31128 c 0.75262,-5.54606 3.16676,-9.83001 6.97332,-12.3743 1.2343,-0.825 3.74815,-2.78412 5.58634,-4.35359 3.58672,-3.0624 4.23257,-2.26896 1.87076,2.29828 -0.80926,1.56495 -1.76607,4.68819 -2.12624,6.94053 -0.36188,2.2631 -1.77966,5.30887 -3.16913,6.80813 -1.38286,1.49213 -2.04169,2.8705 -1.46407,3.06304 1.21004,0.40334 -4.22797,14.72392 -6.68181,17.59599 -2.10364,2.46219 -5.83106,4.32131 -10.37191,5.17318 -4.41166,0.82763 -4.7381,2.07812 -0.96544,3.69836 1.5125,0.64957 2.91159,1.28902 3.10909,1.42099 0.41109,0.27469 -3.61995,6.16259 -5.64506,8.2454 -0.74349,0.76467 -2.10476,2.56467 -3.02506,4 C 295.78921,267.63306 295.20836,268.3329 288,276.1665 281.90635,282.7887 264.78916,298 263.43088,298 c -0.33848,0 -1.75959,0.9 -3.15801,2 -3.24754,2.55451 -3.70409,2.51701 -5.65786,-0.46482 z m 6.73062,-3.7581 c 13.18715,-9.29314 29.33739,-25.50587 37.90437,-38.05104 1.5125,-2.21485 2.75,-4.36226 2.75,-4.77202 0,-0.40976 -1.9125,-1.69398 -4.25,-2.85383 -4.02257,-1.99597 -4.31653,-2.01494 -5.49324,-0.35451 -9.96313,14.05874 -21.75477,26.60678 -32.87613,34.98502 -3.48195,2.62311 -6.34203,5.08108 -6.35572,5.46214 -0.0346,0.96204 4.05952,7.80716 4.6695,7.80716 0.27326,0 1.91632,-1.00031 3.65122,-2.22292 z m 49.50008,-53.36148 c 3.29282,-1.96556 5.6273,-5.07112 6.51401,-8.6656 0.91302,-3.70116 -1.20473,-3.64073 -6.77744,0.19339 -5.44047,3.74314 -8.38364,7.93409 -6.43776,9.16709 1.9912,1.26172 3.72446,1.08199 6.70119,-0.69488 z m 10.50306,-22.24849 c 1.84206,-2.03546 5.16388,-10.98779 4.37121,-11.78046 -0.27772,-0.27772 -2.31219,1.20917 -4.52104,3.3042 -4.07371,3.8638 -6.3246,8.30915 -4.20731,8.30915 0.61952,0 0.84829,0.45 0.50837,1 -1.09,1.76365 2.12944,1.06695 3.84877,-0.83289 z M 94.999999,246.6914 c 0,-0.16972 1.386583,-4.10722 3.081295,-8.75 1.694711,-4.64277 5.553646,-16.0914 8.575416,-25.4414 3.02176,-9.35 6.09228,-18.35 6.82338,-20 0.73109,-1.65 2.92946,-8.1398 4.88525,-14.42178 l 3.556,-11.42178 -2.29957,-2.07822 c -1.26476,-1.14302 -4.28456,-3.46618 -6.71067,-5.16258 -6.35895,-4.44635 -26.181528,-18.68263 -27.695805,-19.89071 -0.706587,-0.56371 -1.831587,-1.48108 -2.5,-2.03859 -1.11036,-0.92613 -7.532364,-5.3348 -22.965296,-15.76554 -3.1625,-2.13745 -5.75,-4.29422 -5.75,-4.7928 0,-0.5238 18.014714,-1.01661 42.669121,-1.16726 l 42.66912,-0.26074 2.3504,-7.5 c 5.56055,-17.743414 19.42986,-59.629337 20.21112,-61.038455 0.46913,-0.84615 1.17315,-3.43365 1.5645,-5.75 0.39134,-2.31635 1.00948,-4.209438 1.37364,-4.206862 0.36415,0.0026 4.00785,10.240075 8.0971,22.75 4.08925,12.509924 8.20335,24.770313 9.14244,27.245313 0.93909,2.475 3.41114,9.94834 5.49343,16.607424 l 3.78598,12.10742 11.07158,0.63803 c 6.08936,0.35092 25.16063,0.64008 42.38059,0.64258 21.25037,0.003 31.10424,0.33587 30.67164,1.03585 -0.35056,0.56721 -7.23962,5.38312 -15.30902,10.70202 -8.0694,5.3189 -19.17164,12.95958 -24.67164,16.97927 -5.5,4.0197 -10.9,7.94479 -12,8.72242 -10.49407,7.41864 -14.50213,10.81876 -14.51449,12.31292 -0.013,1.57084 3.09788,12.59983 5.00719,17.75207 0.95705,2.58257 8.10526,25.13026 12.04701,38 1.68454,5.5 3.93973,12.82195 5.01154,16.271 1.07181,3.44905 1.94875,6.73785 1.94875,7.30845 0,0.57059 -2.5875,-0.91923 -5.75,-3.31073 -3.1625,-2.3915 -6.875,-5.08372 -8.25,-5.98271 -1.375,-0.899 -3.85,-2.78478 -5.5,-4.19063 -1.65,-1.40585 -3.54351,-3.01493 -4.20779,-3.57573 C 208.62792,228.45884 207.7989,228 207.44994,228 206.8589,228 205.351,226.92909 199,221.99885 c -7.73871,-6.00751 -33.6672,-23.9895 -34.59699,-23.99379 -0.60334,-0.003 -2.17834,0.8866 -3.5,1.9764 -4.07613,3.36108 -4.29064,3.51418 -8.40301,5.9975 -2.2,1.32851 -4.225,2.68525 -4.5,3.01497 -0.275,0.32973 -4.55,3.48246 -9.5,7.00607 -4.95,3.52361 -9.225,6.65866 -9.5,6.96678 -0.275,0.30812 -3.17676,2.35415 -6.44836,4.54672 -3.27159,2.19258 -7.09659,4.98793 -8.5,6.21191 C 111.10898,236.29184 96.094988,247 95.439236,247 c -0.241581,0 -0.439237,-0.13887 -0.439237,-0.3086 z M 298,239.09501 c 0,-0.53734 0.39087,-1.21855 0.8686,-1.5138 0.47773,-0.29526 1.18012,-3.69823 1.56086,-7.56215 0.58373,-5.92394 1.24525,-7.74979 4.21956,-11.64635 4.75508,-6.22949 6.50022,-11.36553 5.29258,-15.57632 -1.67486,-5.83991 -1.08206,-10.03539 2.0766,-14.69687 3.51625,-5.1892 3.65209,-7.2424 0.9818,-14.83984 -2.34515,-6.67238 -2.53297,-12.97093 -0.4682,-15.70081 1.91662,-2.53399 1.93205,-10.92902 0.023,-12.51339 -2.93551,-2.43625 -4.69547,-10.32533 -3.70811,-16.62167 1.07196,-6.83583 0.40673,-8.93509 -4.89297,-15.44068 -3.12836,-3.84018 -3.74504,-5.42138 -4.11633,-10.55446 -0.60587,-8.376104 -4.29121,-15.609414 -8.48339,-16.650604 -4.61128,-1.14528 -8.99969,-5.74077 -10.35914,-10.84797 -1.5393,-5.782876 -5.13457,-10.428887 -9.76853,-12.623458 -5.3129,-2.516099 -7.93237,-5.04939 -11.29082,-10.919351 -3.17213,-5.544302 -5.32422,-6.827108 -13.22283,-7.881788 -4.23654,-0.565694 -5.21445,-1.195632 -8.5,-5.475419 -4.61866,-6.016319 -6.70972,-7.02968 -14.50973,-7.031634 -6.63485,-0.0017 -9.33689,-1.09051 -16.74672,-6.748446 -4.6603,-3.55848 -9.37119,-4.14327 -17.77084,-2.206 C 184.60803,23.09971 178.6334,21.869237 172.5,18.607647 170.85,17.730218 168.51406,17.009549 167.30902,17.006161 166.10398,17.002761 164.83992,16.55 164.5,16 c -0.35776,-0.578861 0.60331,-1 2.28205,-1 1.59505,0 5.10911,-0.670129 7.80902,-1.489176 9.15508,-2.777288 14.21132,-1.783969 22.33292,4.387389 3.05017,2.317734 4.36028,2.608751 12,2.665572 11.93794,0.08879 11.32806,-0.100061 17.29839,5.356483 4.66017,4.259132 6.24985,5.07507 11.83059,6.07233 3.54587,0.633635 7.57203,1.855279 8.94703,2.714764 2.68667,1.679384 8.94922,8.320116 8.98082,9.523141 0.0105,0.401777 2.83168,2.050712 6.26918,3.664299 6.72846,3.158389 11.08999,7.111117 12.25372,11.105198 1.18257,4.058726 5.51326,9.109149 9.0939,10.605233 5.00689,2.092014 10.03523,7.624143 10.84286,11.929213 0.78501,4.18442 4.02427,9.72412 8.91845,15.25208 6.12222,6.915034 6.64107,8.163184 6.64107,15.975814 0,7.46546 2.33616,14.30055 5.73797,16.78801 1.95394,1.42876 2.13315,9.83097 0.32587,15.27874 -1.4009,4.22281 -1.35482,4.48922 1.87724,10.85177 2.80586,5.52357 3.2271,7.23468 2.75004,11.17091 -0.30984,2.55653 -1.33724,6.18526 -2.28311,8.06386 -1.1192,2.22287 -1.59177,5.01653 -1.35327,8 0.89557,11.20277 0.46838,17.70729 -1.27749,19.45155 -0.94751,0.94664 -2.65268,3.82345 -3.78927,6.3929 -1.69099,3.82276 -1.95456,5.85916 -1.45036,11.20583 l 0.61617,6.53409 -6.5769,6.78599 C 300.9596,237.01829 298,239.63235 298,239.09501 z m 10.28216,-12.32888 c 1.0332,-2.2123 1.31066,-4.54627 0.85992,-7.23365 l -0.66545,-3.96752 -3.23831,4.88896 c -3.66681,5.53587 -3.89095,6.75059 -1.6577,8.98384 1.95065,1.95065 2.75676,1.49259 4.70154,-2.67163 z m 8.6956,-33.95711 c 0.0269,-5.68244 -0.962,-6.51915 -3.94822,-3.34046 -2.91358,3.10136 -4.27717,12.22418 -1.67808,11.22681 0.97202,-0.373 1.65767,-0.13251 1.67078,0.58601 0.0122,0.67024 0.90222,0.0936 1.97776,-1.28138 1.2964,-1.65735 1.96302,-4.08115 1.97776,-7.19098 z M 316.01531,170.75 c 0.0115,-0.93544 0.22819,-0.91417 0.86127,0.0845 0.63183,0.99676 1.00416,0.74366 1.47103,-1 0.95068,-3.55057 0.77728,-6.84716 -0.55378,-10.52814 -1.35746,-3.75399 -2.90675,-3.84586 -3.91657,-0.23225 -0.90566,3.24088 -1.04622,11.42356 -0.21059,12.25919 1.07765,1.07766 2.33211,0.76609 2.34864,-0.58333 z m -0.46564,-32.16306 c 0.729,-3.88594 0.003,-6.8914 -2.1958,-9.09021 -2.1784,-2.1784 -3.35387,-0.95271 -3.35387,3.49719 0,8.21601 4.25341,12.50265 5.54967,5.59302 z M 309,109.07772 c 0,-2.33165 -5.16785,-10.077724 -6.72344,-10.077724 -0.81188,0 -1.27656,1.385864 -1.27656,3.807224 0,4.77424 4.47089,10.87679 6.64605,9.07157 C 308.39072,111.26076 309,110.00029 309,109.07772 z M 291.82131,80.689346 c 0.18935,-0.98323 -0.37222,-2.88119 -1.24793,-4.21771 -1.6813,-2.565977 -7.36437,-6.013979 -8.32653,-5.05182 -0.31201,0.312009 -0.032,2.353909 0.62223,4.53756 1.80926,6.03875 8.06388,9.34482 8.95223,4.73197 z M 272,57.588894 C 272,55.870681 266.39909,51 264.42327,51 c -2.03587,0 -1.75676,2.306325 0.64931,5.365141 C 267.30281,59.200419 272,60.030194 272,57.588894 z M 249.66476,41.228353 C 252.17366,39.632184 244.68177,34 240.04966,34 c -2.48385,0 -2.51978,0.352873 -0.36999,3.633873 2.37106,3.618683 7.20936,5.360402 9.98509,3.59448 z M 224,28.940983 c 0,-0.582459 0.45,-0.780902 1,-0.440983 1.90662,1.178353 0.989,-1.161328 -1.25,-3.187163 -2.94533,-2.664924 -7.76371,-4.224034 -11.08946,-3.588277 -3.27157,0.625401 -3.31943,1.307814 -0.29124,4.152655 C 215.83463,29.132722 224,31.28365 224,28.940983 z m -33.49794,-8.580146 c 1.32869,-0.509866 1.39581,-0.810206 0.33179,-1.484688 -0.98724,-0.62581 -0.81414,-0.855281 0.66615,-0.883072 1.8367,-0.03448 1.79588,-0.197254 -0.5,-1.993562 -1.375,-1.075807 -3.89085,-2.22744 -5.59077,-2.559184 C 182.04571,12.783935 174,14.546927 174,15.940343 c 0,0.47479 1.4625,1.799864 3.25,2.944609 3.21372,2.058118 9.81804,2.793643 13.25206,1.475885 z M 296.13271,223.18637 c -2.46383,-3.46013 -2.728,-10.51429 -0.69977,-18.68637 1.22719,-4.94457 1.25018,-4.96674 2.07323,-2 0.45775,1.65 1.65444,4.35 2.65931,6 2.3003,3.77709 2.29503,5.76911 -0.0328,12.37913 l -1.86729,5.30236 -2.13271,-2.99512 z m 4.20869,-6.90277 c 0.37004,-2.28028 0.0135,-4.63031 -0.99961,-6.58954 l -1.57476,-3.04526 -1.38352,3.29041 c -1.38985,3.3055 -1.86657,9.24439 -0.82561,10.28536 1.55636,1.55636 4.25177,-0.6643 4.7835,-3.94097 z m 3.83756,-7.44517 c -0.70163,-2.01387 -1.85805,-3.88504 -2.56981,-4.15817 -0.71176,-0.27313 -2.08222,-2.15741 -3.04546,-4.18728 -1.4636,-3.08431 -1.57163,-4.40438 -0.65751,-8.03465 0.6016,-2.38918 1.12806,-6.2822 1.1699,-8.65115 l 0.0761,-4.30718 1.17392,3 c 0.64566,1.65 2.45976,4.89518 4.03134,7.21152 2.83516,4.1787 2.85056,4.28389 1.97733,13.5 -0.87048,9.18709 -0.89401,9.24851 -2.15579,5.62691 z m 1.13821,-9.58843 c 0.57846,-2.89067 -2.0806,-9.75 -3.77966,-9.75 -1.61216,0 -2.73886,6.84022 -1.61401,9.79878 1.38998,3.65594 4.65821,3.62638 5.39367,-0.0488 z M 317,207.74489 c 0,-0.825 0.66309,-2.05032 1.47354,-2.72293 0.81044,-0.67261 1.74449,-2.86521 2.07565,-4.87244 0.9609,-5.82422 2.40586,-8.787 5.78871,-11.86932 1.73915,-1.58465 3.96851,-3.98347 4.95413,-5.33069 l 1.79203,-2.44951 -0.61732,3 c -0.33953,1.65 -0.96309,5.475 -1.3857,8.5 -0.94324,6.75174 -1.78098,8.76972 -3.92342,9.4509 -0.91169,0.28986 -2.78781,1.54449 -4.16915,2.78806 C 317.76511,208.94135 317,209.38928 317,207.74489 z m 10.76579,-9.45585 c 2.36574,-2.75319 2.81956,-8.28812 0.73421,-8.95463 -1.5439,-0.49346 -5.5,5.96395 -5.5,8.97747 0,3.43307 1.80364,3.42443 4.76579,-0.0228 z M 320,183.36974 c 0,-7.97102 1.97258,-12.57164 6.62243,-15.4454 1.87523,-1.15896 4.0593,-3.30355 4.8535,-4.76577 1.38014,-2.541 1.44136,-2.37113 1.38435,3.84143 -0.0802,8.74298 -0.64602,10.33613 -5.87093,16.53101 C 320.54459,191.1722 320,191.15963 320,183.36974 z m 7.99373,-3.51978 c 2.10249,-2.90241 3.00627,-5.30745 3.00627,-8 0,-4.38853 -0.14754,-4.46659 -4.06649,-2.15161 -3.01231,1.77941 -5.93351,7.5996 -5.93351,11.82189 0,3.98171 3.506,3.14439 6.99373,-1.67028 z M 307.44143,187.5 c -0.43927,-1.1 -2.29212,-3.97568 -4.11745,-6.3904 -3.12819,-4.13826 -3.31049,-4.82741 -3.1744,-12 0.0794,-4.18528 -0.16824,-8.7346 -0.55034,-10.1096 -0.63891,-2.29911 -0.59746,-2.33929 0.51593,-0.5 0.66586,1.1 3.15477,4.49336 5.53091,7.5408 5.22108,6.69615 5.89901,9.6343 4.02838,17.4592 -1.13445,4.74547 -1.60135,5.58182 -2.23303,4 z m 2.14511,-9.10959 c 0.75101,-4.00324 -3.59328,-11.22108 -6.83654,-11.35861 -1.26015,-0.0534 -0.83443,7.83036 0.60944,11.28603 1.87421,4.48563 5.39151,4.52662 6.2271,0.0726 z M 305,160.07575 c -5.64861,-5.52637 -6.98844,-8.12448 -7.0009,-13.57575 -0.006,-2.75 -0.65696,-6.2375 -1.44596,-7.75 -1.84076,-3.52874 -1.16602,-3.46542 3.31484,0.31108 10.24667,8.63594 10.88537,9.89642 9.51055,18.76911 L 308.5,163.5 305,160.07575 z m 1,-3.13477 c 0,-0.58246 0.45,-0.7809 1,-0.44098 0.60178,0.37192 1,-0.94466 1,-3.30612 0,-4.15417 -2.52241,-8.33273 -6.22688,-10.3153 -2.01297,-1.07731 -2.0563,-0.93819 -1.52673,4.90204 0.34937,3.85288 1.21075,6.73635 2.39933,8.03176 2.08775,2.27541 3.35428,2.70155 3.35428,1.1286 z m 17.09347,0.19405 c -1.37847,-7.71343 -0.73952,-10.31474 3.92292,-15.97108 1.64099,-1.9908 3.03536,-4.30461 3.09861,-5.14179 0.10692,-1.41522 0.99363,2.01513 2.50011,9.67196 1.04861,5.32968 -0.41227,9.93156 -4.50506,14.19134 l -3.81539,3.97105 -1.20119,-6.72148 z m 7.44196,-4.29636 c 0.95835,-4.36333 -0.32448,-11.85685 -1.92467,-11.2428 -2.0744,0.79602 -4.61076,7.14691 -4.61076,11.54505 0,3.20965 0.31797,3.95104 1.5,3.49745 0.825,-0.31658 1.5,-0.0846 1.5,0.51546 0,2.20599 2.87346,-1.3012 3.53543,-4.31516 z m -10.70939,-16.08744 c 0.24471,-8.44484 0.74357,-11.8748 2,-13.75123 0.92068,-1.375 1.91287,-4.525 2.20488,-7 l 0.53092,-4.5 1.33518,4.5 c 0.73435,2.475 1.94922,6.17483 2.69971,8.22183 1.66969,4.55416 0.89053,9.41921 -2.04649,12.77817 -3.15392,3.60702 -5.55024,7.69347 -5.55024,9.46482 0,0.84435 -0.3375,1.53573 -0.75,1.53641 -0.4125,6.8e-4 -0.60328,-5.06182 -0.42396,-11.25 z m 6.40865,-3.17829 c 1.04537,-1.52667 0.91052,-8.7949 -0.19563,-10.54398 -1.07904,-1.70621 -1.04865,-1.73651 -3.36801,3.35835 -2.14835,4.71918 -1.48639,9.84821 1.14587,8.87857 0.92569,-0.341 2.01369,-1.10282 2.41777,-1.69294 z m -23.86761,4.05753 C 297.70549,134.09956 294,129.23218 294,126.63981 c 0,-0.95503 -0.89462,-3.58807 -1.98804,-5.8512 l -1.98805,-4.11477 2.23805,2.04611 c 1.23092,1.12536 3.59739,2.73196 5.25882,3.57023 5.69948,2.87564 8.19969,6.31695 8.94949,12.31817 0.38207,3.05802 0.54507,5.69336 0.36221,5.85631 -0.18287,0.16296 -2.1923,-1.11243 -4.4654,-2.83419 z m 1.05726,-3.91195 c 1.70757,-1.70757 0.46439,-4.87428 -2.97588,-7.5804 C 297.53562,123.84688 295,123.34033 295,125.04966 c 0,1.28785 2.79533,6.78585 4.35641,8.56843 1.46393,1.67162 2.47185,1.69651 4.06793,0.10043 z m 12.74106,-13.46031 c -4.16762,-11.78434 -4.62231,-14.80544 -3.2599,-21.659734 0.7213,-3.62885 1.0196,-7.83554 0.66288,-9.34819 l -0.64857,-2.75029 2.0335,3 c 1.11843,1.65 2.03648,3.46241 2.0401,4.02758 0.004,0.56516 1.35659,3.62957 3.00659,6.809794 3.6159,6.9693 3.70763,9.23047 0.64811,15.97671 -1.29354,2.85225 -2.53228,5.75212 -2.75274,6.44413 -0.22047,0.69202 -0.99895,-0.43298 -1.72997,-2.5 z m 4.24344,-9.62397 c 0.67815,-3.61484 0.31397,-5.30845 -2.2329,-10.38424 -1.99261,-3.971164 -2.94897,-4.098684 -3.74983,-0.500004 -0.3366,1.512504 -0.77518,3.425004 -0.97462,4.250004 -0.74061,3.06353 1.12283,8.50459 2.86349,8.36111 0.92676,-0.0764 1.68502,0.26111 1.68502,0.75 0,2.38397 1.85471,0.47688 2.40884,-2.47687 z M 302,121 c -1.375,-1.07554 -2.99498,-1.96553 -3.59996,-1.97776 -3.04856,-0.0616 -9.5823,-6.37733 -11.81103,-11.41689 -1.30115,-2.94213 -2.86596,-5.65848 -3.47737,-6.03635 C 282.50024,101.19113 282,100.42586 282,99.868406 c 0,-0.55746 1.18569,-0.0809 2.63486,1.059014 1.44917,1.13992 3.27152,2.07258 4.04966,2.07258 3.24367,0 11.29245,5.47675 11.32815,7.70819 0.007,0.43549 1.32498,3.37931 2.92892,6.54181 3.13082,6.17307 2.97081,6.81032 -0.94159,3.75 z m -3.40275,-5.91929 c 2.77929,2.30661 1.44472,-2.47012 -1.6366,-5.85772 C 293.46767,105.38281 288,103.70946 288,106.48064 c 0,3.42468 7.88437,10.8601 8.84725,8.34347 0.19098,-0.49917 0.97848,-0.3837 1.75,0.2566 z m -4.01247,-12.94354 c -0.29329,-0.47455 -2.59129,-1.43904 -5.10667,-2.143304 -4.74976,-1.32985 -7.22662,-3.3819 -13.97811,-11.58074 -2.90548,-3.52833 -3.32345,-4.38625 -1.52749,-3.13531 1.35987,0.9472 3.88022,1.72218 5.60077,1.72218 3.92073,0 9.34315,1.78607 11.81474,3.89161 C 294.20608,93.292306 298.005,103 296.1264,103 c -0.5546,0 -1.24833,-0.38827 -1.54162,-0.86283 z m -1.8673,-3.941394 c 1.75634,-1.11601 -2.0097,-6.97618 -5.28304,-8.2207 C 283.79999,88.593256 280,88.765936 280,90.312906 c 0,2.23752 7.73043,8.59956 10.5,8.64137 0.55,0.008 1.54786,-0.33302 2.21748,-0.7585 z m 14.82167,-2.07241 c -0.32759,-1.03215 -2.72041,-3.97191 -5.31738,-6.5328 l -4.72177,-4.65617 0,-11.28846 c 0,-9.030684 0.25001,-11.038488 1.25,-10.038629 0.6875,0.68741 1.25,1.653323 1.25,2.146473 0,0.493151 2.01151,3.487061 4.47001,6.653134 4.94241,6.364842 5.66103,8.925512 5.28548,18.833782 -0.25348,6.68765 -1.07149,8.48976 -2.21634,4.88267 z m -1.45319,-9.01851 c 0.58162,0.91853 0.88865,-0.28073 0.89873,-3.51047 0.0116,-3.73352 -0.59417,-5.70467 -2.53558,-8.25 C 303.04612,73.504976 301.5212,72 301.0604,72 c -1.37497,0 -2.1277,6.278536 -1.15807,9.659456 1.13137,3.94484 4.42689,7.59001 4.94895,5.47402 0.2991,-1.21231 0.48248,-1.21657 1.23468,-0.0286 z M 280.5,82.999996 c -1.1,-0.47268 -3.25543,-0.89105 -4.78984,-0.92971 C 272.77823,81.996386 265,78.480616 265,77.229236 c 0,-0.40157 -1.7238,-2.615934 -3.83067,-4.920813 -3.72013,-4.069769 -3.7562,-4.179086 -1.25,-3.788533 1.41937,0.221187 4.6866,0.667535 7.26052,0.991887 3.89275,0.490543 5.23826,1.261179 8,4.581946 1.82608,2.195723 4.52303,5.322883 5.99323,6.949243 2.78333,3.079 2.67446,3.39552 -0.67308,1.95703 z m -5.85928,-5.44461 c 0.0774,-1.34376 -0.67517,-3.18158 -1.67238,-4.08404 -1.97511,-1.787446 -9.989,-3.282137 -9.93507,-1.853015 0.0481,1.275727 3.07416,4.670215 5.93924,6.662425 3.49692,2.43157 5.50115,2.17508 5.66821,-0.72537 z m 18.55514,-4.383805 c -0.10772,-0.730631 -1.99061,-3.105319 -4.18419,-5.277085 -5.22738,-5.175401 -6.78307,-8.369145 -7.55173,-15.503289 -0.34911,-3.240164 -1.10954,-6.464582 -1.68985,-7.165373 -0.5803,-0.700791 -0.81692,-1.512338 -0.52582,-1.803438 0.84596,-0.845963 13.73387,12.642309 14.32321,14.990442 0.29389,1.170948 0.37457,5.269584 0.17929,9.108079 -0.19528,3.838496 -0.44319,6.381294 -0.55091,5.650664 z m -2.64049,-9.493494 c 1.28052,1.689319 1.38334,1.618161 1.41283,-0.977747 0.0417,-3.668498 -2.25629,-7.995192 -5.6743,-10.6838 -3.36558,-2.647366 -3.91001,-1.523503 -2.32229,4.793927 1.37739,5.480513 4.30441,9.527963 4.86556,6.728045 0.30742,-1.533843 0.45908,-1.521523 1.7182,0.139575 z m -39.59314,-0.580541 c -1.90423,-1.596349 -3.11998,-3.251101 -2.70167,-3.677226 0.41831,-0.426125 1.65678,0.187206 2.75216,1.362959 2.07587,2.228186 9.54727,4.990066 10.61382,3.923511 0.33751,-0.337507 0.34739,-1.647106 0.022,-2.91022 -1.04078,-4.039564 -9.31777,-6.269078 -13.5233,-3.642678 -1.46013,0.911864 -2.34295,0.806989 -4.20894,-0.5 C 241.63554,56.056422 241.8279,56 249.55499,56 c 8.58315,0 9.32707,0.301414 15.76621,6.388012 L 269.1424,66 l -7.35897,0 c -6.65977,0 -7.68794,-0.275773 -10.8212,-2.902454 z m 21.22401,-11.562817 c -5.82131,-5.734978 -9.02179,-11.213564 -9.14235,-15.64987 -0.0241,-0.888328 -0.99519,-2.824526 -2.15789,-4.302663 -2.87773,-3.658434 -1.6549,-4.406967 2.07382,-1.269455 1.67437,1.408882 4.84337,3.57274 7.04224,4.808573 2.19887,1.235832 3.99794,2.632326 3.99794,3.10332 0,0.470993 0.86444,2.075629 1.92098,3.565859 1.301,1.835038 2.04246,4.888009 2.29739,9.459507 0.20703,3.7125 0.35509,6.694844 0.32902,6.627431 -0.0261,-0.06741 -2.88858,-2.921629 -6.36115,-6.342702 z M 274,48.5 c 0,-0.825 0.41859,-1.5 0.93019,-1.5 1.89128,0 -0.93305,-6.324159 -4.07846,-9.132372 -4.10583,-3.665687 -4.85521,-3.60644 -4.83642,0.382372 0.0165,3.504781 0.39538,4.319066 4.07484,8.758023 C 272.7889,50.263844 274,50.725991 274,48.5 z m -41,2.321549 c -1.925,-1.194037 -5.075,-2.967045 -7,-3.940018 l -3.5,-1.769042 4.5,0.07606 c 2.475,0.04183 7.2,-0.236911 10.5,-0.619434 5.11991,-0.593481 6.44004,-0.394981 9,1.353273 2.84681,1.944156 4.38117,2.941987 8.96108,5.82761 1.66112,1.046608 0.27991,1.249392 -8.48857,1.246262 C 237.97053,52.99306 236.00853,52.687679 233,50.821549 z M 245,51 c 0.94868,-0.613081 1.0521,-0.975003 0.28138,-0.984687 -0.67023,-0.0084 -0.98228,-0.631173 -0.69344,-1.383891 0.63549,-1.656042 -2.39729,-2.598785 -8.42127,-2.617767 -5.75567,-0.01814 -5.10049,1.944852 1.39935,4.192575 C 243.46187,52.245086 243.12845,52.209485 245,51 z M 215.51914,42.030967 C 215.18975,41.497998 212.23819,40.507964 208.96012,39.83089 205.68205,39.153817 203,38.335503 203,38.012417 c 0,-0.323087 1.7537,-0.657364 3.89711,-0.742837 2.14342,-0.08547 5.62425,-1.081096 7.73519,-2.212493 C 217.09683,33.736182 220.33276,33 223.67437,33 c 4.67026,0 5.69739,0.42751 10.01481,4.168349 4.1828,3.624198 4.45708,4.079933 2.10108,3.491052 -1.58264,-0.395577 -4.49426,-0.05571 -7,0.817098 -4.86446,1.694403 -12.37273,2.008098 -13.27112,0.554468 z M 228,40.105235 c 5.20109,-1.446746 2.02641,-6.020006 -4.21607,-6.073432 C 219.52228,33.995333 213,36.769608 213,38.61879 c 0,1.937008 9.86557,2.914649 15,1.486445 z m 29.03777,-1.145876 C 255.13355,37.331712 253.03058,36 252.3645,36 c -2.16278,0 -7.12857,-4.921661 -7.81651,-7.747052 -1.28997,-5.297957 -3.94254,-10.243398 -5.81256,-10.83692 -3.0512,-0.968413 -3.14845,0.200553 -0.48242,5.799118 1.38415,2.90667 2.41766,5.398159 2.29669,5.536644 -0.12097,0.138484 -2.27336,-0.366198 -4.78309,-1.121517 -5.4797,-1.649145 -11.44638,-5.990318 -12.32744,-8.969056 -1.06078,-3.586341 -5.63174,-9.694967 -8.36796,-11.182917 -2.78199,-1.512846 -1.17148,-2.062859 1.69236,-0.577965 0.95504,0.495184 4.39386,1.732684 7.64182,2.75 3.24797,1.017316 7.13178,2.99256 8.6307,4.389432 1.49892,1.396871 3.25138,2.364408 3.89436,2.150081 1.99047,-0.663489 17.76638,7.698505 19.49156,10.331469 0.89764,1.369966 2.03878,4.62561 2.53588,7.234765 0.4971,2.609155 1.20808,5.531418 1.57995,6.493918 0.89331,2.312083 0.57945,2.196348 -3.50007,-1.290641 z m -0.46557,-5.28691 c 0.60688,-1.581499 -1.07192,-6.339393 -2.82608,-8.009423 -0.68537,-0.652494 -2.59612,-1.841665 -4.24612,-2.642602 -1.65,-0.800937 -3.3375,-1.620689 -3.75,-1.82167 -0.4125,-0.200981 -0.75,0.645043 -0.75,1.880055 0,3.042357 4.58044,10.665043 6.74908,11.231688 3.22355,0.842286 4.31023,0.69853 4.82312,-0.638048 z M 235.79442,21.847026 c 0.6207,-3.258643 -10.30121,-12.673574 -12.33861,-10.636166 -0.92252,0.922519 3.62618,9.733251 5.82565,11.284149 2.72027,1.918131 6.088,1.583071 6.51296,-0.647983 z M 191.5,35 c -1.1,-0.472686 -4.56094,-0.891058 -7.69098,-0.929715 C 180.67898,34.031625 177.83992,33.55 177.5,33 c -0.36437,-0.589563 0.74011,-1.000978 2.69098,-1.002383 2.20938,-0.0016 5.26469,-1.330855 9.19399,-4 7.38237,-5.01479 10.3381,-5.102611 16.74791,-0.497617 2.67946,1.925 5.43321,3.510681 6.11943,3.523735 0.68623,0.01306 -1.45231,1.135971 -4.75231,2.49537 -6.04373,2.489646 -12.30409,3.069081 -16,1.480895 z m 14.05887,-2.468197 c 1.09342,-0.827023 1.39525,-1.482085 0.69113,-1.5 -0.6875,-0.01749 -1.25,-0.544694 -1.25,-1.17156 0,-1.816118 -3.25433,-3.793846 -6.29966,-3.82844 -3.13539,-0.03562 -7.68237,2.036693 -9.63732,4.39226 -1.0937,1.31783 -0.92952,1.700797 1.07284,2.50255 3.76261,1.506567 13.22957,1.264225 15.42301,-0.39481 z M 211,17.032606 c -7.38625,-0.77663 -12.41184,-3.021414 -14.08859,-6.292956 -0.63133,-1.231808 -2.78217,-3.955218 -4.77964,-6.052023 -3.58608,-3.764415 -3.59636,-3.799009 -0.81667,-2.75 1.5483,0.584305 4.4733,1.072256 6.5,1.084335 5.6883,0.0339 11.70615,3.259396 14.58271,7.816156 1.38536,2.194547 3.53771,4.70374 4.78302,5.575984 1.2453,0.872244 1.82655,1.522009 1.29168,1.443923 C 217.93763,17.779935 214.575,17.4085 211,17.032606 z m -0.6232,-3.572139 c 0.90252,-2.351943 -1.4399,-5.303558 -5.94252,-7.487993 -6.73572,-3.26781 -9.36467,-2.388608 -7.15648,2.393342 1.22007,2.642143 7.75513,6.631903 10.86521,6.633395 0.90366,4.34e-4 1.90886,-0.692001 2.23379,-1.538744 z" id="path2987" inkscape:connector-curvature="0"/>
</svg>